<svg xmlns="http://www.w3.org/2000/svg" xmlns:xlink="http://www.w3.org/1999/xlink" width="200" zoomAndPan="magnify" viewBox="0 0 150 74.999997" height="100" preserveAspectRatio="xMidYMid meet" version="1.0"><defs><g/><clipPath id="28712c3d82"><path d="M 0.839844 4 L 16 4 L 16 19 L 0.839844 19 Z M 0.839844 4 " clip-rule="nonzero"/></clipPath><clipPath id="e1a3c8e6a6"><rect x="0" width="42" y="0" height="25"/></clipPath><clipPath id="4a18706707"><rect x="0" width="18" y="0" height="53"/></clipPath><clipPath id="91b4e0df9b"><rect x="0" width="28" y="0" height="26"/></clipPath><clipPath id="dfe687e5d2"><rect x="0" width="122" y="0" height="25"/></clipPath><clipPath id="4bab669894"><path d="M 49.082031 45.5 L 79.828125 45.5 L 79.828125 53.75 L 49.082031 53.75 Z M 49.082031 45.5 " clip-rule="nonzero"/></clipPath><clipPath id="58f22f6630"><path d="M 51.84375 45.5 L 77.097656 45.5 C 77.828125 45.5 78.527344 45.789062 79.046875 46.308594 C 79.5625 46.824219 79.855469 47.527344 79.855469 48.257812 L 79.855469 51.191406 C 79.855469 51.921875 79.5625 52.625 79.046875 53.140625 C 78.527344 53.660156 77.828125 53.949219 77.097656 53.949219 L 51.84375 53.949219 C 51.109375 53.949219 50.410156 53.660156 49.890625 53.140625 C 49.375 52.625 49.082031 51.921875 49.082031 51.191406 L 49.082031 48.257812 C 49.082031 47.527344 49.375 46.824219 49.890625 46.308594 C 50.410156 45.789062 51.109375 45.5 51.84375 45.5 Z M 51.84375 45.5 " clip-rule="nonzero"/></clipPath><clipPath id="72abed9bba"><path d="M 59.613281 29.25 L 90.355469 29.25 L 90.355469 37.5 L 59.613281 37.5 Z M 59.613281 29.25 " clip-rule="nonzero"/></clipPath><clipPath id="3f99388c3f"><path d="M 62.371094 29.25 L 87.625 29.25 C 88.355469 29.25 89.058594 29.539062 89.574219 30.058594 C 90.09375 30.574219 90.382812 31.277344 90.382812 32.007812 L 90.382812 34.941406 C 90.382812 35.671875 90.09375 36.375 89.574219 36.890625 C 89.058594 37.410156 88.355469 37.699219 87.625 37.699219 L 62.371094 37.699219 C 61.640625 37.699219 60.9375 37.410156 60.421875 36.890625 C 59.902344 36.375 59.613281 35.671875 59.613281 34.941406 L 59.613281 32.007812 C 59.613281 31.277344 59.902344 30.574219 60.421875 30.058594 C 60.9375 29.539062 61.640625 29.25 62.371094 29.25 Z M 62.371094 29.25 " clip-rule="nonzero"/></clipPath><clipPath id="27818e7227"><path d="M 3 14 L 34 14 L 34 53 L 3 53 Z M 3 14 " clip-rule="nonzero"/></clipPath><clipPath id="e470cd4727"><path d="M 5.863281 13.300781 L 36.609375 20.148438 L 28.621094 56.019531 L -2.125 49.171875 Z M 5.863281 13.300781 " clip-rule="nonzero"/></clipPath><clipPath id="ff48cda3b8"><path d="M 5.863281 13.300781 L 36.609375 20.148438 L 28.621094 56.019531 L -2.125 49.171875 Z M 5.863281 13.300781 " clip-rule="nonzero"/></clipPath><clipPath id="4c1c14f2da"><path d="M 0.601562 0 L 3 0 L 3 5 L 0.601562 5 Z M 0.601562 0 " clip-rule="nonzero"/></clipPath><clipPath id="ad3422c4a8"><rect x="0" width="122" y="0" height="6"/></clipPath></defs><rect x="-15" width="180" fill="#ffffff" y="-7.5" height="89.999996" fill-opacity="1"/><rect x="-15" width="180" fill="#000000" y="-7.5" height="89.999996" fill-opacity="1"/><g transform="matrix(1, 0, 0, 1, 27, 4)"><g clip-path="url(#e1a3c8e6a6)"><g clip-path="url(#28712c3d82)"><g fill="#fffbed" fill-opacity="1"><g transform="translate(0.84333, 18.804539)"><g><path d="M 11.0625 -3.734375 L 3.265625 -3.734375 L 1.578125 0 L 0.046875 0 L 6.4375 -14 L 7.90625 -14 L 14.296875 0 L 12.734375 0 Z M 10.515625 -4.9375 L 7.15625 -12.453125 L 3.796875 -4.9375 Z M 10.515625 -4.9375 "/></g></g></g></g><g fill="#fffbed" fill-opacity="1"><g transform="translate(15.181054, 18.804539)"><g><path d="M 7.515625 -14 C 9.304688 -14 10.707031 -13.570312 11.71875 -12.71875 C 12.726562 -11.863281 13.234375 -10.691406 13.234375 -9.203125 C 13.234375 -7.703125 12.726562 -6.53125 11.71875 -5.6875 C 10.707031 -4.84375 9.304688 -4.421875 7.515625 -4.421875 L 3.765625 -4.421875 L 3.765625 0 L 2.28125 0 L 2.28125 -14 Z M 7.484375 -5.71875 C 8.867188 -5.71875 9.925781 -6.019531 10.65625 -6.625 C 11.394531 -7.238281 11.765625 -8.097656 11.765625 -9.203125 C 11.765625 -10.335938 11.394531 -11.207031 10.65625 -11.8125 C 9.925781 -12.414062 8.867188 -12.71875 7.484375 -12.71875 L 3.765625 -12.71875 L 3.765625 -5.71875 Z M 7.484375 -5.71875 "/></g></g></g><g fill="#fffbed" fill-opacity="1"><g transform="translate(29.538783, 18.804539)"><g><path d="M 2.28125 -14 L 3.765625 -14 L 3.765625 0 L 2.28125 0 Z M 2.28125 -14 "/></g></g></g><g fill="#fffbed" fill-opacity="1"><g transform="translate(35.587077, 18.804539)"><g/></g></g></g></g><g transform="matrix(1, 0, 0, 1, 42, 21)"><g clip-path="url(#4a18706707)"><g fill="#fffbed" fill-opacity="1"><g transform="translate(0.180172, 19.007263)"><g><path d="M 2.28125 -14 L 7.984375 -14 C 9.460938 -14 10.765625 -13.703125 11.890625 -13.109375 C 13.023438 -12.515625 13.90625 -11.6875 14.53125 -10.625 C 15.164062 -9.570312 15.484375 -8.363281 15.484375 -7 C 15.484375 -5.632812 15.164062 -4.421875 14.53125 -3.359375 C 13.90625 -2.304688 13.023438 -1.484375 11.890625 -0.890625 C 10.765625 -0.296875 9.460938 0 7.984375 0 L 2.28125 0 Z M 7.90625 -1.28125 C 9.125 -1.28125 10.191406 -1.519531 11.109375 -2 C 12.035156 -2.488281 12.75 -3.160156 13.25 -4.015625 C 13.757812 -4.878906 14.015625 -5.875 14.015625 -7 C 14.015625 -8.125 13.757812 -9.113281 13.25 -9.96875 C 12.75 -10.832031 12.035156 -11.503906 11.109375 -11.984375 C 10.191406 -12.472656 9.125 -12.71875 7.90625 -12.71875 L 3.765625 -12.71875 L 3.765625 -1.28125 Z M 7.90625 -1.28125 "/></g></g></g><g fill="#fffbed" fill-opacity="1"><g transform="translate(0.180172, 46.60726)"><g/></g></g></g></g><g transform="matrix(1, 0, 0, 1, 92, 20)"><g clip-path="url(#91b4e0df9b)"><g fill="#fffbed" fill-opacity="1"><g transform="translate(0.161409, 19.699997)"><g><path d="M 8.359375 0.125 C 6.972656 0.125 5.722656 -0.179688 4.609375 -0.796875 C 3.492188 -1.410156 2.617188 -2.257812 1.984375 -3.34375 C 1.359375 -4.4375 1.046875 -5.65625 1.046875 -7 C 1.046875 -8.34375 1.359375 -9.554688 1.984375 -10.640625 C 2.617188 -11.734375 3.492188 -12.585938 4.609375 -13.203125 C 5.734375 -13.816406 6.988281 -14.125 8.375 -14.125 C 9.414062 -14.125 10.375 -13.945312 11.25 -13.59375 C 12.132812 -13.25 12.882812 -12.742188 13.5 -12.078125 L 12.5625 -11.140625 C 11.46875 -12.242188 10.085938 -12.796875 8.421875 -12.796875 C 7.316406 -12.796875 6.3125 -12.539062 5.40625 -12.03125 C 4.5 -11.53125 3.785156 -10.835938 3.265625 -9.953125 C 2.753906 -9.078125 2.5 -8.09375 2.5 -7 C 2.5 -5.90625 2.753906 -4.914062 3.265625 -4.03125 C 3.785156 -3.15625 4.5 -2.460938 5.40625 -1.953125 C 6.3125 -1.453125 7.316406 -1.203125 8.421875 -1.203125 C 10.097656 -1.203125 11.476562 -1.757812 12.5625 -2.875 L 13.5 -1.9375 C 12.882812 -1.269531 12.132812 -0.757812 11.25 -0.40625 C 10.363281 -0.0507812 9.398438 0.125 8.359375 0.125 Z M 8.359375 0.125 "/></g></g></g><g fill="#fffbed" fill-opacity="1"><g transform="translate(14.539133, 19.699997)"><g><path d="M 6.140625 0.125 C 5.097656 0.125 4.097656 -0.0390625 3.140625 -0.375 C 2.191406 -0.707031 1.457031 -1.148438 0.9375 -1.703125 L 1.515625 -2.84375 C 2.023438 -2.332031 2.695312 -1.921875 3.53125 -1.609375 C 4.375 -1.296875 5.242188 -1.140625 6.140625 -1.140625 C 7.390625 -1.140625 8.328125 -1.367188 8.953125 -1.828125 C 9.585938 -2.285156 9.90625 -2.882812 9.90625 -3.625 C 9.90625 -4.175781 9.734375 -4.617188 9.390625 -4.953125 C 9.046875 -5.285156 8.628906 -5.539062 8.140625 -5.71875 C 7.648438 -5.90625 6.960938 -6.101562 6.078125 -6.3125 C 5.023438 -6.582031 4.1875 -6.835938 3.5625 -7.078125 C 2.9375 -7.328125 2.398438 -7.707031 1.953125 -8.21875 C 1.503906 -8.726562 1.28125 -9.414062 1.28125 -10.28125 C 1.28125 -10.988281 1.46875 -11.628906 1.84375 -12.203125 C 2.21875 -12.785156 2.789062 -13.25 3.5625 -13.59375 C 4.332031 -13.945312 5.289062 -14.125 6.4375 -14.125 C 7.238281 -14.125 8.019531 -14.007812 8.78125 -13.78125 C 9.550781 -13.5625 10.21875 -13.257812 10.78125 -12.875 L 10.28125 -11.703125 C 9.695312 -12.085938 9.070312 -12.375 8.40625 -12.5625 C 7.738281 -12.757812 7.082031 -12.859375 6.4375 -12.859375 C 5.207031 -12.859375 4.28125 -12.617188 3.65625 -12.140625 C 3.039062 -11.671875 2.734375 -11.0625 2.734375 -10.3125 C 2.734375 -9.757812 2.90625 -9.3125 3.25 -8.96875 C 3.59375 -8.625 4.019531 -8.363281 4.53125 -8.1875 C 5.039062 -8.007812 5.726562 -7.8125 6.59375 -7.59375 C 7.625 -7.34375 8.457031 -7.09375 9.09375 -6.84375 C 9.726562 -6.601562 10.265625 -6.234375 10.703125 -5.734375 C 11.140625 -5.234375 11.359375 -4.554688 11.359375 -3.703125 C 11.359375 -2.992188 11.164062 -2.347656 10.78125 -1.765625 C 10.40625 -1.191406 9.820312 -0.734375 9.03125 -0.390625 C 8.25 -0.046875 7.285156 0.125 6.140625 0.125 Z M 6.140625 0.125 "/></g></g></g></g></g><g transform="matrix(1, 0, 0, 1, 26, 38)"><g clip-path="url(#dfe687e5d2)"><g fill="#fffbed" fill-opacity="1"><g transform="translate(1.036036, 19.349986)"><g><path d="M 12.140625 -7 L 13.5625 -7 L 13.5625 -1.65625 C 12.90625 -1.082031 12.128906 -0.640625 11.234375 -0.328125 C 10.347656 -0.0234375 9.410156 0.125 8.421875 0.125 C 7.015625 0.125 5.75 -0.179688 4.625 -0.796875 C 3.507812 -1.410156 2.632812 -2.257812 2 -3.34375 C 1.363281 -4.4375 1.046875 -5.65625 1.046875 -7 C 1.046875 -8.34375 1.363281 -9.554688 2 -10.640625 C 2.632812 -11.734375 3.507812 -12.585938 4.625 -13.203125 C 5.75 -13.816406 7.019531 -14.125 8.4375 -14.125 C 9.507812 -14.125 10.488281 -13.953125 11.375 -13.609375 C 12.269531 -13.265625 13.023438 -12.757812 13.640625 -12.09375 L 12.71875 -11.15625 C 11.613281 -12.25 10.207031 -12.796875 8.5 -12.796875 C 7.363281 -12.796875 6.335938 -12.546875 5.421875 -12.046875 C 4.515625 -11.546875 3.800781 -10.851562 3.28125 -9.96875 C 2.757812 -9.082031 2.5 -8.09375 2.5 -7 C 2.5 -5.90625 2.757812 -4.914062 3.28125 -4.03125 C 3.800781 -3.15625 4.515625 -2.460938 5.421875 -1.953125 C 6.328125 -1.453125 7.347656 -1.203125 8.484375 -1.203125 C 9.921875 -1.203125 11.140625 -1.5625 12.140625 -2.28125 Z M 12.140625 -7 "/></g></g></g><g fill="#fffbed" fill-opacity="1"><g transform="translate(16.493588, 19.349986)"><g><path d="M 2.28125 -14 L 3.765625 -14 L 3.765625 -1.28125 L 11.59375 -1.28125 L 11.59375 0 L 2.28125 0 Z M 2.28125 -14 "/></g></g></g><g fill="#fffbed" fill-opacity="1"><g transform="translate(28.279784, 19.349986)"><g/></g></g><g fill="#fffbed" fill-opacity="1"><g transform="translate(33.518953, 19.349986)"><g/></g></g><g fill="#fffbed" fill-opacity="1"><g transform="translate(38.758122, 19.349986)"><g/></g></g><g fill="#fffbed" fill-opacity="1"><g transform="translate(43.99729, 19.349986)"><g/></g></g><g fill="#fffbed" fill-opacity="1"><g transform="translate(49.236459, 19.349986)"><g/></g></g><g fill="#fffbed" fill-opacity="1"><g transform="translate(54.482907, 19.349986)"><g><path d="M 6.140625 0.125 C 5.097656 0.125 4.097656 -0.0390625 3.140625 -0.375 C 2.191406 -0.707031 1.457031 -1.148438 0.9375 -1.703125 L 1.515625 -2.84375 C 2.023438 -2.332031 2.695312 -1.921875 3.53125 -1.609375 C 4.375 -1.296875 5.242188 -1.140625 6.140625 -1.140625 C 7.390625 -1.140625 8.328125 -1.367188 8.953125 -1.828125 C 9.585938 -2.285156 9.90625 -2.882812 9.90625 -3.625 C 9.90625 -4.175781 9.734375 -4.617188 9.390625 -4.953125 C 9.046875 -5.285156 8.628906 -5.539062 8.140625 -5.71875 C 7.648438 -5.90625 6.960938 -6.101562 6.078125 -6.3125 C 5.023438 -6.582031 4.1875 -6.835938 3.5625 -7.078125 C 2.9375 -7.328125 2.398438 -7.707031 1.953125 -8.21875 C 1.503906 -8.726562 1.28125 -9.414062 1.28125 -10.28125 C 1.28125 -10.988281 1.46875 -11.628906 1.84375 -12.203125 C 2.21875 -12.785156 2.789062 -13.25 3.5625 -13.59375 C 4.332031 -13.945312 5.289062 -14.125 6.4375 -14.125 C 7.238281 -14.125 8.019531 -14.007812 8.78125 -13.78125 C 9.550781 -13.5625 10.21875 -13.257812 10.78125 -12.875 L 10.28125 -11.703125 C 9.695312 -12.085938 9.070312 -12.375 8.40625 -12.5625 C 7.738281 -12.757812 7.082031 -12.859375 6.4375 -12.859375 C 5.207031 -12.859375 4.28125 -12.617188 3.65625 -12.140625 C 3.039062 -11.671875 2.734375 -11.0625 2.734375 -10.3125 C 2.734375 -9.757812 2.90625 -9.3125 3.25 -8.96875 C 3.59375 -8.625 4.019531 -8.363281 4.53125 -8.1875 C 5.039062 -8.007812 5.726562 -7.8125 6.59375 -7.59375 C 7.625 -7.34375 8.457031 -7.09375 9.09375 -6.84375 C 9.726562 -6.601562 10.265625 -6.234375 10.703125 -5.734375 C 11.140625 -5.234375 11.359375 -4.554688 11.359375 -3.703125 C 11.359375 -2.992188 11.164062 -2.347656 10.78125 -1.765625 C 10.40625 -1.191406 9.820312 -0.734375 9.03125 -0.390625 C 8.25 -0.046875 7.285156 0.125 6.140625 0.125 Z M 6.140625 0.125 "/></g></g></g><g fill="#fffbed" fill-opacity="1"><g transform="translate(66.780956, 19.349986)"><g><path d="M 6.140625 0.125 C 5.097656 0.125 4.097656 -0.0390625 3.140625 -0.375 C 2.191406 -0.707031 1.457031 -1.148438 0.9375 -1.703125 L 1.515625 -2.84375 C 2.023438 -2.332031 2.695312 -1.921875 3.53125 -1.609375 C 4.375 -1.296875 5.242188 -1.140625 6.140625 -1.140625 C 7.390625 -1.140625 8.328125 -1.367188 8.953125 -1.828125 C 9.585938 -2.285156 9.90625 -2.882812 9.90625 -3.625 C 9.90625 -4.175781 9.734375 -4.617188 9.390625 -4.953125 C 9.046875 -5.285156 8.628906 -5.539062 8.140625 -5.71875 C 7.648438 -5.90625 6.960938 -6.101562 6.078125 -6.3125 C 5.023438 -6.582031 4.1875 -6.835938 3.5625 -7.078125 C 2.9375 -7.328125 2.398438 -7.707031 1.953125 -8.21875 C 1.503906 -8.726562 1.28125 -9.414062 1.28125 -10.28125 C 1.28125 -10.988281 1.46875 -11.628906 1.84375 -12.203125 C 2.21875 -12.785156 2.789062 -13.25 3.5625 -13.59375 C 4.332031 -13.945312 5.289062 -14.125 6.4375 -14.125 C 7.238281 -14.125 8.019531 -14.007812 8.78125 -13.78125 C 9.550781 -13.5625 10.21875 -13.257812 10.78125 -12.875 L 10.28125 -11.703125 C 9.695312 -12.085938 9.070312 -12.375 8.40625 -12.5625 C 7.738281 -12.757812 7.082031 -12.859375 6.4375 -12.859375 C 5.207031 -12.859375 4.28125 -12.617188 3.65625 -12.140625 C 3.039062 -11.671875 2.734375 -11.0625 2.734375 -10.3125 C 2.734375 -9.757812 2.90625 -9.3125 3.25 -8.96875 C 3.59375 -8.625 4.019531 -8.363281 4.53125 -8.1875 C 5.039062 -8.007812 5.726562 -7.8125 6.59375 -7.59375 C 7.625 -7.34375 8.457031 -7.09375 9.09375 -6.84375 C 9.726562 -6.601562 10.265625 -6.234375 10.703125 -5.734375 C 11.140625 -5.234375 11.359375 -4.554688 11.359375 -3.703125 C 11.359375 -2.992188 11.164062 -2.347656 10.78125 -1.765625 C 10.40625 -1.191406 9.820312 -0.734375 9.03125 -0.390625 C 8.25 -0.046875 7.285156 0.125 6.140625 0.125 Z M 6.140625 0.125 "/></g></g></g><g fill="#fffbed" fill-opacity="1"><g transform="translate(79.079005, 19.349986)"><g><path d="M 11.0625 -3.734375 L 3.265625 -3.734375 L 1.578125 0 L 0.046875 0 L 6.4375 -14 L 7.90625 -14 L 14.296875 0 L 12.734375 0 Z M 10.515625 -4.9375 L 7.15625 -12.453125 L 3.796875 -4.9375 Z M 10.515625 -4.9375 "/></g></g></g><g fill="#fffbed" fill-opacity="1"><g transform="translate(93.416729, 19.349986)"><g><path d="M 11.84375 0 L 8.640625 -4.5 C 8.273438 -4.457031 7.898438 -4.4375 7.515625 -4.4375 L 3.765625 -4.4375 L 3.765625 0 L 2.28125 0 L 2.28125 -14 L 7.515625 -14 C 9.304688 -14 10.707031 -13.570312 11.71875 -12.71875 C 12.726562 -11.863281 13.234375 -10.691406 13.234375 -9.203125 C 13.234375 -8.109375 12.957031 -7.179688 12.40625 -6.421875 C 11.851562 -5.671875 11.066406 -5.128906 10.046875 -4.796875 L 13.453125 0 Z M 7.484375 -5.703125 C 8.867188 -5.703125 9.925781 -6.007812 10.65625 -6.625 C 11.394531 -7.238281 11.765625 -8.097656 11.765625 -9.203125 C 11.765625 -10.335938 11.394531 -11.207031 10.65625 -11.8125 C 9.925781 -12.414062 8.867188 -12.71875 7.484375 -12.71875 L 3.765625 -12.71875 L 3.765625 -5.703125 Z M 7.484375 -5.703125 "/></g></g></g><g fill="#fffbed" fill-opacity="1"><g transform="translate(107.874443, 19.349986)"><g><path d="M 7.078125 -4.84375 L 7.078125 0 L 5.625 0 L 5.625 -4.84375 L 0.015625 -14 L 1.59375 -14 L 6.40625 -6.140625 L 11.203125 -14 L 12.6875 -14 Z M 7.078125 -4.84375 "/></g></g></g></g></g><g clip-path="url(#4bab669894)"><g clip-path="url(#58f22f6630)"><path stroke-linecap="butt" transform="matrix(0.75, 0, 0, 0.75, 49.083467, 45.499997)" fill="none" stroke-linejoin="miter" d="M 3.680378 0.00000415445 L 37.352258 0.00000415445 C 38.326216 0.00000415445 39.258508 0.385421 39.951216 1.078129 C 40.638717 1.765629 41.029342 2.70313 41.029342 3.677088 L 41.029342 7.588547 C 41.029342 8.562505 40.638717 9.500006 39.951216 10.187506 C 39.258508 10.880214 38.326216 11.265631 37.352258 11.265631 L 3.680378 11.265631 C 2.701211 11.265631 1.768919 10.880214 1.076211 10.187506 C 0.388711 9.500006 -0.00191432 8.562505 -0.00191432 7.588547 L -0.00191432 3.677088 C -0.00191432 2.70313 0.388711 1.765629 1.076211 1.078129 C 1.768919 0.385421 2.701211 0.00000415445 3.680378 0.00000415445 Z M 3.680378 0.00000415445 " stroke="#fffbed" stroke-width="4" stroke-opacity="1" stroke-miterlimit="4"/></g></g><g clip-path="url(#72abed9bba)"><g clip-path="url(#3f99388c3f)"><path stroke-linecap="butt" transform="matrix(0.75, 0, 0, 0.75, 59.612357, 29.250114)" fill="none" stroke-linejoin="miter" d="M 3.678316 -0.000151642 L 37.350196 -0.000151642 C 38.324154 -0.000151642 39.261654 0.385265 39.949154 1.077974 C 40.641863 1.765474 41.02728 2.702974 41.02728 3.676932 L 41.02728 7.588391 C 41.02728 8.56235 40.641863 9.49985 39.949154 10.18735 C 39.261654 10.880058 38.324154 11.265475 37.350196 11.265475 L 3.678316 11.265475 C 2.704357 11.265475 1.766857 10.880058 1.079357 10.18735 C 0.386649 9.49985 0.00123189 8.56235 0.00123189 7.588391 L 0.00123189 3.676932 C 0.00123189 2.702974 0.386649 1.765474 1.079357 1.077974 C 1.766857 0.385265 2.704357 -0.000151642 3.678316 -0.000151642 Z M 3.678316 -0.000151642 " stroke="#fffbed" stroke-width="4" stroke-opacity="1" stroke-miterlimit="4"/></g></g><g clip-path="url(#27818e7227)"><g clip-path="url(#e470cd4727)"><g clip-path="url(#ff48cda3b8)"><path fill="#fffbed" d="M 31.628906 36.5 C 32.496094 35.4375 33.304688 34.203125 33.617188 32.851562 C 33.859375 31.941406 33.746094 31.085938 33.265625 30.277344 C 32.761719 29.550781 32.09375 29.035156 31.269531 28.722656 C 29.320312 27.898438 27.0625 27.804688 24.980469 27.933594 C 23.992188 27.988281 23.015625 28.125 22.050781 28.339844 C 20.546875 28.707031 19.109375 29.257812 17.746094 29.988281 C 15.707031 31.050781 13.925781 32.445312 12.40625 34.167969 C 11.402344 34.449219 10.574219 34.988281 9.917969 35.796875 C 9.683594 36.101562 9.5 36.4375 9.363281 36.800781 C 8.921875 36.429688 8.539062 36 8.222656 35.515625 C 7.585938 34.511719 7.351562 33.417969 7.527344 32.242188 C 7.71875 31.144531 8.117188 30.132812 8.722656 29.199219 C 9.320312 29.191406 9.910156 29.128906 10.492188 29.003906 C 12.75 28.523438 15.125 27.199219 16.191406 25.070312 C 16.222656 25.011719 16.222656 24.953125 16.195312 24.894531 C 16.167969 24.832031 16.121094 24.796875 16.058594 24.78125 C 13.464844 23.953125 10.875 25.785156 9.296875 27.6875 C 8.992188 28.054688 8.707031 28.441406 8.449219 28.839844 C 7.320312 28.847656 6.296875 28.519531 5.378906 27.859375 C 4.6875 27.359375 4.210938 26.707031 3.949219 25.894531 C 3.746094 25.128906 3.75 24.367188 3.957031 23.605469 C 4.382812 21.855469 5.441406 20.277344 6.511719 18.855469 C 7.636719 17.367188 8.910156 16.007812 10.105469 14.582031 C 10.234375 14.429688 10.007812 14.21875 9.878906 14.371094 C 8.753906 15.707031 7.5625 16.984375 6.488281 18.367188 C 5.339844 19.851562 4.21875 21.480469 3.699219 23.304688 C 3.453125 24.09375 3.40625 24.898438 3.554688 25.710938 C 3.738281 26.542969 4.148438 27.246094 4.785156 27.816406 C 5.769531 28.6875 6.917969 29.144531 8.234375 29.1875 C 7.257812 30.828125 6.699219 32.757812 7.3125 34.609375 C 7.691406 35.675781 8.328125 36.554688 9.226562 37.25 C 9.105469 37.734375 9.058594 38.222656 9.082031 38.722656 C 9.09375 38.941406 9.121094 39.160156 9.167969 39.378906 C 8.863281 40.117188 8.597656 40.875 8.375 41.644531 C 7.867188 43.28125 7.613281 44.957031 7.625 46.671875 C 7.65625 47.976562 7.898438 49.425781 8.734375 50.46875 C 9.429688 51.292969 10.300781 51.828125 11.347656 52.082031 C 13.609375 52.691406 16.175781 52.234375 18.25 51.207031 C 20.125 50.273438 21.925781 48.550781 21.800781 46.292969 C 21.71875 45.140625 21.292969 44.136719 20.519531 43.28125 C 22.8125 42.769531 24.941406 41.867188 26.90625 40.578125 L 26.90625 40.585938 C 26.914062 41.882812 26.445312 43.152344 25.90625 44.3125 C 25.324219 45.558594 24.621094 46.738281 23.941406 47.933594 C 23.789062 48.203125 24.214844 48.425781 24.367188 48.15625 C 25.089844 46.882812 25.84375 45.625 26.441406 44.285156 C 26.980469 43.082031 27.417969 41.777344 27.378906 40.441406 C 27.378906 40.386719 27.371094 40.332031 27.367188 40.277344 C 27.394531 40.257812 27.425781 40.238281 27.453125 40.21875 C 29.027344 39.179688 30.417969 37.941406 31.628906 36.5 Z M 9.175781 28.523438 C 10.011719 27.332031 11.066406 26.378906 12.332031 25.660156 C 13.371094 25.097656 14.5625 24.824219 15.714844 25.105469 C 14.765625 26.8125 12.90625 27.925781 11.078125 28.46875 C 10.386719 28.675781 9.679688 28.796875 8.960938 28.832031 C 9.03125 28.730469 9.101562 28.625 9.175781 28.523438 Z M 10.191406 36.210938 C 10.605469 35.652344 11.128906 35.226562 11.757812 34.941406 C 11.164062 35.691406 10.632812 36.484375 10.160156 37.316406 C 10.148438 37.339844 10.136719 37.359375 10.125 37.378906 C 10 37.292969 9.875 37.203125 9.75 37.109375 C 9.851562 36.789062 10 36.488281 10.195312 36.210938 Z M 9.628906 37.5625 C 9.726562 37.632812 9.820312 37.703125 9.917969 37.765625 C 9.789062 38.011719 9.664062 38.261719 9.546875 38.515625 C 9.542969 38.195312 9.570312 37.878906 9.628906 37.5625 Z M 10.308594 38.019531 C 10.886719 38.375 11.488281 38.699219 12.101562 38.988281 C 14.324219 40.042969 16.742188 40.808594 18.753906 42.25 C 19.0625 42.472656 19.355469 42.714844 19.625 42.980469 C 19.386719 43.015625 19.144531 43.046875 18.902344 43.066406 C 17.644531 43.183594 16.390625 43.164062 15.140625 43.003906 C 12.957031 42.722656 10.167969 41.84375 9.640625 39.429688 C 9.847656 38.949219 10.066406 38.480469 10.308594 38.019531 Z M 21.148438 47.734375 C 20.414062 49.773438 18.167969 50.960938 16.207031 51.507812 C 14.195312 52.066406 11.644531 52.183594 9.855469 50.914062 C 8.914062 50.246094 8.445312 49.230469 8.226562 48.121094 C 7.917969 46.535156 8.097656 44.867188 8.425781 43.300781 C 8.65625 42.210938 8.972656 41.140625 9.371094 40.101562 C 9.644531 40.808594 10.082031 41.398438 10.679688 41.867188 C 11.6875 42.664062 12.949219 43.085938 14.195312 43.324219 C 15.523438 43.570312 16.859375 43.65625 18.207031 43.582031 C 18.8125 43.550781 19.414062 43.484375 20.011719 43.378906 C 21.070312 44.578125 21.722656 46.136719 21.148438 47.734375 Z M 23.308594 41.9375 C 22.292969 42.363281 21.246094 42.679688 20.164062 42.890625 C 19.421875 42.15625 18.589844 41.546875 17.671875 41.058594 C 15.425781 39.824219 12.941406 39.082031 10.734375 37.769531 C 10.660156 37.722656 10.589844 37.679688 10.515625 37.632812 C 11.109375 36.550781 11.808594 35.546875 12.613281 34.609375 C 14.703125 33.957031 17.054688 34.136719 19.167969 34.542969 C 21.335938 34.960938 23.664062 35.660156 25.324219 37.183594 C 26.195312 37.949219 26.707031 38.90625 26.867188 40.050781 C 25.742188 40.792969 24.554688 41.421875 23.308594 41.9375 Z M 22.703125 35.066406 C 20.445312 34.171875 18.101562 33.726562 15.675781 33.726562 C 14.84375 33.722656 14.023438 33.796875 13.207031 33.957031 C 15.460938 31.628906 18.136719 29.988281 21.238281 29.039062 C 23.160156 28.476562 25.125 28.253906 27.128906 28.371094 C 28.167969 28.40625 29.1875 28.558594 30.191406 28.828125 C 31.042969 29.035156 31.800781 29.429688 32.457031 30.011719 C 34.050781 31.550781 32.941406 33.871094 31.898438 35.382812 C 30.847656 36.839844 29.597656 38.097656 28.148438 39.152344 C 27.871094 39.363281 27.589844 39.5625 27.304688 39.757812 C 26.894531 37.441406 24.824219 35.90625 22.703125 35.066406 Z M 22.703125 35.066406 " fill-opacity="1" fill-rule="nonzero"/></g></g></g><g transform="matrix(1, 0, 0, 1, 27, 60)"><g clip-path="url(#ad3422c4a8)"><g clip-path="url(#4c1c14f2da)"><g fill="#fffbed" fill-opacity="1"><g transform="translate(0.692616, 4.004316)"><g><path d="M 1.171875 -2.953125 C 1.035156 -2.953125 0.929688 -2.914062 0.859375 -2.84375 C 0.796875 -2.769531 0.765625 -2.664062 0.765625 -2.53125 L 0.765625 -2.265625 L 1.46875 -2.265625 L 1.46875 -2 L 0.78125 -2 L 0.78125 0 L 0.484375 0 L 0.484375 -2 L 0.078125 -2 L 0.078125 -2.265625 L 0.484375 -2.265625 L 0.484375 -2.546875 C 0.484375 -2.742188 0.539062 -2.898438 0.65625 -3.015625 C 0.769531 -3.140625 0.9375 -3.203125 1.15625 -3.203125 C 1.238281 -3.203125 1.320312 -3.191406 1.40625 -3.171875 C 1.488281 -3.148438 1.554688 -3.113281 1.609375 -3.0625 L 1.515625 -2.84375 C 1.421875 -2.914062 1.304688 -2.953125 1.171875 -2.953125 Z M 1.171875 -2.953125 "/></g></g></g></g><g fill="#fffbed" fill-opacity="1"><g transform="translate(2.150325, 4.004316)"><g><path d="M 2.46875 -2.265625 L 2.46875 0 L 2.171875 0 L 2.171875 -0.40625 C 2.085938 -0.269531 1.972656 -0.164062 1.828125 -0.09375 C 1.691406 -0.0195312 1.535156 0.015625 1.359375 0.015625 C 1.066406 0.015625 0.832031 -0.0625 0.65625 -0.21875 C 0.488281 -0.382812 0.40625 -0.628906 0.40625 -0.953125 L 0.40625 -2.265625 L 0.703125 -2.265625 L 0.703125 -0.984375 C 0.703125 -0.742188 0.757812 -0.5625 0.875 -0.4375 C 1 -0.3125 1.171875 -0.25 1.390625 -0.25 C 1.628906 -0.25 1.816406 -0.320312 1.953125 -0.46875 C 2.085938 -0.613281 2.15625 -0.816406 2.15625 -1.078125 L 2.15625 -2.265625 Z M 2.46875 -2.265625 "/></g></g></g><g fill="#fffbed" fill-opacity="1"><g transform="translate(5.044243, 4.004316)"><g><path d="M 1.578125 -2.28125 C 1.859375 -2.28125 2.082031 -2.195312 2.25 -2.03125 C 2.414062 -1.863281 2.5 -1.625 2.5 -1.3125 L 2.5 0 L 2.203125 0 L 2.203125 -1.28125 C 2.203125 -1.507812 2.140625 -1.6875 2.015625 -1.8125 C 1.898438 -1.9375 1.734375 -2 1.515625 -2 C 1.273438 -2 1.082031 -1.925781 0.9375 -1.78125 C 0.800781 -1.632812 0.734375 -1.4375 0.734375 -1.1875 L 0.734375 0 L 0.421875 0 L 0.421875 -2.265625 L 0.71875 -2.265625 L 0.71875 -1.84375 C 0.800781 -1.976562 0.914062 -2.082031 1.0625 -2.15625 C 1.207031 -2.238281 1.378906 -2.28125 1.578125 -2.28125 Z M 1.578125 -2.28125 "/></g></g></g><g fill="#fffbed" fill-opacity="1"><g transform="translate(7.963963, 4.004316)"><g><path d="M 2.484375 -3.1875 L 2.484375 0 L 2.203125 0 L 2.203125 -0.453125 C 2.109375 -0.296875 1.984375 -0.175781 1.828125 -0.09375 C 1.679688 -0.0195312 1.515625 0.015625 1.328125 0.015625 C 1.109375 0.015625 0.910156 -0.03125 0.734375 -0.125 C 0.566406 -0.21875 0.4375 -0.351562 0.34375 -0.53125 C 0.25 -0.707031 0.203125 -0.90625 0.203125 -1.125 C 0.203125 -1.351562 0.25 -1.550781 0.34375 -1.71875 C 0.4375 -1.894531 0.566406 -2.03125 0.734375 -2.125 C 0.910156 -2.226562 1.109375 -2.28125 1.328125 -2.28125 C 1.503906 -2.28125 1.664062 -2.238281 1.8125 -2.15625 C 1.96875 -2.082031 2.09375 -1.972656 2.1875 -1.828125 L 2.1875 -3.1875 Z M 1.34375 -0.25 C 1.5 -0.25 1.640625 -0.285156 1.765625 -0.359375 C 1.898438 -0.429688 2.003906 -0.535156 2.078125 -0.671875 C 2.148438 -0.804688 2.1875 -0.957031 2.1875 -1.125 C 2.1875 -1.300781 2.148438 -1.457031 2.078125 -1.59375 C 2.003906 -1.726562 1.898438 -1.832031 1.765625 -1.90625 C 1.640625 -1.976562 1.5 -2.015625 1.34375 -2.015625 C 1.1875 -2.015625 1.039062 -1.976562 0.90625 -1.90625 C 0.78125 -1.832031 0.679688 -1.726562 0.609375 -1.59375 C 0.535156 -1.457031 0.5 -1.300781 0.5 -1.125 C 0.5 -0.957031 0.535156 -0.804688 0.609375 -0.671875 C 0.679688 -0.535156 0.78125 -0.429688 0.90625 -0.359375 C 1.039062 -0.285156 1.1875 -0.25 1.34375 -0.25 Z M 1.34375 -0.25 "/></g></g></g><g fill="#fffbed" fill-opacity="1"><g transform="translate(10.879386, 4.004316)"><g><path d="M 1.21875 -2.28125 C 1.507812 -2.28125 1.734375 -2.203125 1.890625 -2.046875 C 2.046875 -1.898438 2.125 -1.6875 2.125 -1.40625 L 2.125 0 L 1.84375 0 L 1.84375 -0.359375 C 1.769531 -0.234375 1.664062 -0.140625 1.53125 -0.078125 C 1.40625 -0.015625 1.25 0.015625 1.0625 0.015625 C 0.8125 0.015625 0.609375 -0.0390625 0.453125 -0.15625 C 0.304688 -0.28125 0.234375 -0.441406 0.234375 -0.640625 C 0.234375 -0.828125 0.300781 -0.976562 0.4375 -1.09375 C 0.582031 -1.21875 0.804688 -1.28125 1.109375 -1.28125 L 1.828125 -1.28125 L 1.828125 -1.40625 C 1.828125 -1.601562 1.769531 -1.753906 1.65625 -1.859375 C 1.550781 -1.960938 1.394531 -2.015625 1.1875 -2.015625 C 1.039062 -2.015625 0.898438 -1.988281 0.765625 -1.9375 C 0.640625 -1.894531 0.53125 -1.832031 0.4375 -1.75 L 0.296875 -1.96875 C 0.410156 -2.070312 0.546875 -2.148438 0.703125 -2.203125 C 0.867188 -2.253906 1.039062 -2.28125 1.21875 -2.28125 Z M 1.109375 -0.21875 C 1.273438 -0.21875 1.421875 -0.253906 1.546875 -0.328125 C 1.671875 -0.410156 1.765625 -0.523438 1.828125 -0.671875 L 1.828125 -1.046875 L 1.109375 -1.046875 C 0.722656 -1.046875 0.53125 -0.910156 0.53125 -0.640625 C 0.53125 -0.515625 0.582031 -0.410156 0.6875 -0.328125 C 0.789062 -0.253906 0.929688 -0.21875 1.109375 -0.21875 Z M 1.109375 -0.21875 "/></g></g></g><g fill="#fffbed" fill-opacity="1"><g transform="translate(13.416403, 4.004316)"><g><path d="M 3.25 -2.28125 C 3.53125 -2.28125 3.75 -2.195312 3.90625 -2.03125 C 4.070312 -1.863281 4.15625 -1.625 4.15625 -1.3125 L 4.15625 0 L 3.84375 0 L 3.84375 -1.28125 C 3.84375 -1.507812 3.785156 -1.6875 3.671875 -1.8125 C 3.566406 -1.9375 3.410156 -2 3.203125 -2 C 2.960938 -2 2.773438 -1.925781 2.640625 -1.78125 C 2.503906 -1.632812 2.4375 -1.4375 2.4375 -1.1875 L 2.4375 0 L 2.140625 0 L 2.140625 -1.28125 C 2.140625 -1.507812 2.082031 -1.6875 1.96875 -1.8125 C 1.851562 -1.9375 1.691406 -2 1.484375 -2 C 1.253906 -2 1.070312 -1.925781 0.9375 -1.78125 C 0.800781 -1.632812 0.734375 -1.4375 0.734375 -1.1875 L 0.734375 0 L 0.421875 0 L 0.421875 -2.265625 L 0.71875 -2.265625 L 0.71875 -1.84375 C 0.800781 -1.976562 0.910156 -2.082031 1.046875 -2.15625 C 1.191406 -2.238281 1.359375 -2.28125 1.546875 -2.28125 C 1.734375 -2.28125 1.894531 -2.238281 2.03125 -2.15625 C 2.175781 -2.070312 2.28125 -1.953125 2.34375 -1.796875 C 2.425781 -1.953125 2.546875 -2.070312 2.703125 -2.15625 C 2.859375 -2.238281 3.039062 -2.28125 3.25 -2.28125 Z M 3.25 -2.28125 "/></g></g></g><g fill="#fffbed" fill-opacity="1"><g transform="translate(17.987335, 4.004316)"><g><path d="M 2.390625 -1.03125 L 0.5 -1.03125 C 0.519531 -0.800781 0.609375 -0.613281 0.765625 -0.46875 C 0.929688 -0.320312 1.140625 -0.25 1.390625 -0.25 C 1.535156 -0.25 1.664062 -0.273438 1.78125 -0.328125 C 1.894531 -0.378906 1.992188 -0.453125 2.078125 -0.546875 L 2.25 -0.34375 C 2.15625 -0.226562 2.03125 -0.140625 1.875 -0.078125 C 1.726562 -0.015625 1.566406 0.015625 1.390625 0.015625 C 1.148438 0.015625 0.941406 -0.03125 0.765625 -0.125 C 0.585938 -0.226562 0.445312 -0.363281 0.34375 -0.53125 C 0.25 -0.707031 0.203125 -0.90625 0.203125 -1.125 C 0.203125 -1.34375 0.25 -1.539062 0.34375 -1.71875 C 0.4375 -1.894531 0.566406 -2.03125 0.734375 -2.125 C 0.898438 -2.226562 1.085938 -2.28125 1.296875 -2.28125 C 1.503906 -2.28125 1.691406 -2.226562 1.859375 -2.125 C 2.023438 -2.03125 2.15625 -1.894531 2.25 -1.71875 C 2.34375 -1.550781 2.390625 -1.351562 2.390625 -1.125 Z M 1.296875 -2.015625 C 1.078125 -2.015625 0.894531 -1.941406 0.75 -1.796875 C 0.601562 -1.660156 0.519531 -1.484375 0.5 -1.265625 L 2.109375 -1.265625 C 2.085938 -1.484375 2 -1.660156 1.84375 -1.796875 C 1.695312 -1.941406 1.515625 -2.015625 1.296875 -2.015625 Z M 1.296875 -2.015625 "/></g></g></g><g fill="#fffbed" fill-opacity="1"><g transform="translate(20.584552, 4.004316)"><g><path d="M 1.578125 -2.28125 C 1.859375 -2.28125 2.082031 -2.195312 2.25 -2.03125 C 2.414062 -1.863281 2.5 -1.625 2.5 -1.3125 L 2.5 0 L 2.203125 0 L 2.203125 -1.28125 C 2.203125 -1.507812 2.140625 -1.6875 2.015625 -1.8125 C 1.898438 -1.9375 1.734375 -2 1.515625 -2 C 1.273438 -2 1.082031 -1.925781 0.9375 -1.78125 C 0.800781 -1.632812 0.734375 -1.4375 0.734375 -1.1875 L 0.734375 0 L 0.421875 0 L 0.421875 -2.265625 L 0.71875 -2.265625 L 0.71875 -1.84375 C 0.800781 -1.976562 0.914062 -2.082031 1.0625 -2.15625 C 1.207031 -2.238281 1.378906 -2.28125 1.578125 -2.28125 Z M 1.578125 -2.28125 "/></g></g></g><g fill="#fffbed" fill-opacity="1"><g transform="translate(23.495672, 4.004316)"><g><path d="M 1.609375 -0.140625 C 1.554688 -0.0859375 1.488281 -0.046875 1.40625 -0.015625 C 1.320312 0.00390625 1.234375 0.015625 1.140625 0.015625 C 0.929688 0.015625 0.769531 -0.0390625 0.65625 -0.15625 C 0.539062 -0.269531 0.484375 -0.429688 0.484375 -0.640625 L 0.484375 -2 L 0.078125 -2 L 0.078125 -2.265625 L 0.484375 -2.265625 L 0.484375 -2.75 L 0.78125 -2.75 L 0.78125 -2.265625 L 1.46875 -2.265625 L 1.46875 -2 L 0.78125 -2 L 0.78125 -0.65625 C 0.78125 -0.519531 0.8125 -0.414062 0.875 -0.34375 C 0.945312 -0.269531 1.046875 -0.234375 1.171875 -0.234375 C 1.234375 -0.234375 1.289062 -0.242188 1.34375 -0.265625 C 1.40625 -0.285156 1.460938 -0.316406 1.515625 -0.359375 Z M 1.609375 -0.140625 "/></g></g></g><g fill="#fffbed" fill-opacity="1"><g transform="translate(25.241486, 4.004316)"><g><path d="M 1.21875 -2.28125 C 1.507812 -2.28125 1.734375 -2.203125 1.890625 -2.046875 C 2.046875 -1.898438 2.125 -1.6875 2.125 -1.40625 L 2.125 0 L 1.84375 0 L 1.84375 -0.359375 C 1.769531 -0.234375 1.664062 -0.140625 1.53125 -0.078125 C 1.40625 -0.015625 1.25 0.015625 1.0625 0.015625 C 0.8125 0.015625 0.609375 -0.0390625 0.453125 -0.15625 C 0.304688 -0.28125 0.234375 -0.441406 0.234375 -0.640625 C 0.234375 -0.828125 0.300781 -0.976562 0.4375 -1.09375 C 0.582031 -1.21875 0.804688 -1.28125 1.109375 -1.28125 L 1.828125 -1.28125 L 1.828125 -1.40625 C 1.828125 -1.601562 1.769531 -1.753906 1.65625 -1.859375 C 1.550781 -1.960938 1.394531 -2.015625 1.1875 -2.015625 C 1.039062 -2.015625 0.898438 -1.988281 0.765625 -1.9375 C 0.640625 -1.894531 0.53125 -1.832031 0.4375 -1.75 L 0.296875 -1.96875 C 0.410156 -2.070312 0.546875 -2.148438 0.703125 -2.203125 C 0.867188 -2.253906 1.039062 -2.28125 1.21875 -2.28125 Z M 1.109375 -0.21875 C 1.273438 -0.21875 1.421875 -0.253906 1.546875 -0.328125 C 1.671875 -0.410156 1.765625 -0.523438 1.828125 -0.671875 L 1.828125 -1.046875 L 1.109375 -1.046875 C 0.722656 -1.046875 0.53125 -0.910156 0.53125 -0.640625 C 0.53125 -0.515625 0.582031 -0.410156 0.6875 -0.328125 C 0.789062 -0.253906 0.929688 -0.21875 1.109375 -0.21875 Z M 1.109375 -0.21875 "/></g></g></g><g fill="#fffbed" fill-opacity="1"><g transform="translate(27.778503, 4.004316)"><g><path d="M 0.421875 -3.1875 L 0.734375 -3.1875 L 0.734375 0 L 0.421875 0 Z M 0.421875 -3.1875 "/></g></g></g><g fill="#fffbed" fill-opacity="1"><g transform="translate(28.935213, 4.004316)"><g/></g></g><g fill="#fffbed" fill-opacity="1"><g transform="translate(30.061823, 4.004316)"><g><path d="M 1.359375 0.015625 C 1.140625 0.015625 0.941406 -0.03125 0.765625 -0.125 C 0.585938 -0.21875 0.445312 -0.351562 0.34375 -0.53125 C 0.25 -0.707031 0.203125 -0.90625 0.203125 -1.125 C 0.203125 -1.34375 0.25 -1.539062 0.34375 -1.71875 C 0.445312 -1.894531 0.585938 -2.03125 0.765625 -2.125 C 0.941406 -2.226562 1.140625 -2.28125 1.359375 -2.28125 C 1.554688 -2.28125 1.726562 -2.238281 1.875 -2.15625 C 2.03125 -2.082031 2.15625 -1.972656 2.25 -1.828125 L 2.015625 -1.671875 C 1.941406 -1.785156 1.847656 -1.867188 1.734375 -1.921875 C 1.617188 -1.984375 1.492188 -2.015625 1.359375 -2.015625 C 1.191406 -2.015625 1.039062 -1.976562 0.90625 -1.90625 C 0.78125 -1.832031 0.679688 -1.726562 0.609375 -1.59375 C 0.535156 -1.457031 0.5 -1.300781 0.5 -1.125 C 0.5 -0.957031 0.535156 -0.804688 0.609375 -0.671875 C 0.679688 -0.535156 0.78125 -0.429688 0.90625 -0.359375 C 1.039062 -0.285156 1.191406 -0.25 1.359375 -0.25 C 1.492188 -0.25 1.617188 -0.273438 1.734375 -0.328125 C 1.847656 -0.378906 1.941406 -0.460938 2.015625 -0.578125 L 2.25 -0.421875 C 2.15625 -0.273438 2.03125 -0.164062 1.875 -0.09375 C 1.726562 -0.0195312 1.554688 0.015625 1.359375 0.015625 Z M 1.359375 0.015625 "/></g></g></g><g fill="#fffbed" fill-opacity="1"><g transform="translate(32.444038, 4.004316)"><g><path d="M 1.34375 0.015625 C 1.125 0.015625 0.925781 -0.03125 0.75 -0.125 C 0.582031 -0.226562 0.445312 -0.363281 0.34375 -0.53125 C 0.25 -0.707031 0.203125 -0.90625 0.203125 -1.125 C 0.203125 -1.34375 0.25 -1.539062 0.34375 -1.71875 C 0.445312 -1.894531 0.582031 -2.03125 0.75 -2.125 C 0.925781 -2.226562 1.125 -2.28125 1.34375 -2.28125 C 1.5625 -2.28125 1.757812 -2.226562 1.9375 -2.125 C 2.113281 -2.03125 2.25 -1.894531 2.34375 -1.71875 C 2.445312 -1.539062 2.5 -1.34375 2.5 -1.125 C 2.5 -0.90625 2.445312 -0.707031 2.34375 -0.53125 C 2.25 -0.363281 2.113281 -0.226562 1.9375 -0.125 C 1.757812 -0.03125 1.5625 0.015625 1.34375 0.015625 Z M 1.34375 -0.25 C 1.507812 -0.25 1.65625 -0.285156 1.78125 -0.359375 C 1.90625 -0.429688 2.003906 -0.535156 2.078125 -0.671875 C 2.148438 -0.804688 2.1875 -0.957031 2.1875 -1.125 C 2.1875 -1.300781 2.148438 -1.457031 2.078125 -1.59375 C 2.003906 -1.726562 1.90625 -1.832031 1.78125 -1.90625 C 1.65625 -1.976562 1.507812 -2.015625 1.34375 -2.015625 C 1.1875 -2.015625 1.039062 -1.976562 0.90625 -1.90625 C 0.78125 -1.832031 0.679688 -1.726562 0.609375 -1.59375 C 0.535156 -1.457031 0.5 -1.300781 0.5 -1.125 C 0.5 -0.957031 0.535156 -0.804688 0.609375 -0.671875 C 0.679688 -0.535156 0.78125 -0.429688 0.90625 -0.359375 C 1.039062 -0.285156 1.1875 -0.25 1.34375 -0.25 Z M 1.34375 -0.25 "/></g></g></g><g fill="#fffbed" fill-opacity="1"><g transform="translate(35.140156, 4.004316)"><g><path d="M 1.578125 -2.28125 C 1.859375 -2.28125 2.082031 -2.195312 2.25 -2.03125 C 2.414062 -1.863281 2.5 -1.625 2.5 -1.3125 L 2.5 0 L 2.203125 0 L 2.203125 -1.28125 C 2.203125 -1.507812 2.140625 -1.6875 2.015625 -1.8125 C 1.898438 -1.9375 1.734375 -2 1.515625 -2 C 1.273438 -2 1.082031 -1.925781 0.9375 -1.78125 C 0.800781 -1.632812 0.734375 -1.4375 0.734375 -1.1875 L 0.734375 0 L 0.421875 0 L 0.421875 -2.265625 L 0.71875 -2.265625 L 0.71875 -1.84375 C 0.800781 -1.976562 0.914062 -2.082031 1.0625 -2.15625 C 1.207031 -2.238281 1.378906 -2.28125 1.578125 -2.28125 Z M 1.578125 -2.28125 "/></g></g></g><g fill="#fffbed" fill-opacity="1"><g transform="translate(38.059876, 4.004316)"><g><path d="M 1.359375 0.015625 C 1.140625 0.015625 0.941406 -0.03125 0.765625 -0.125 C 0.585938 -0.21875 0.445312 -0.351562 0.34375 -0.53125 C 0.25 -0.707031 0.203125 -0.90625 0.203125 -1.125 C 0.203125 -1.34375 0.25 -1.539062 0.34375 -1.71875 C 0.445312 -1.894531 0.585938 -2.03125 0.765625 -2.125 C 0.941406 -2.226562 1.140625 -2.28125 1.359375 -2.28125 C 1.554688 -2.28125 1.726562 -2.238281 1.875 -2.15625 C 2.03125 -2.082031 2.15625 -1.972656 2.25 -1.828125 L 2.015625 -1.671875 C 1.941406 -1.785156 1.847656 -1.867188 1.734375 -1.921875 C 1.617188 -1.984375 1.492188 -2.015625 1.359375 -2.015625 C 1.191406 -2.015625 1.039062 -1.976562 0.90625 -1.90625 C 0.78125 -1.832031 0.679688 -1.726562 0.609375 -1.59375 C 0.535156 -1.457031 0.5 -1.300781 0.5 -1.125 C 0.5 -0.957031 0.535156 -0.804688 0.609375 -0.671875 C 0.679688 -0.535156 0.78125 -0.429688 0.90625 -0.359375 C 1.039062 -0.285156 1.191406 -0.25 1.359375 -0.25 C 1.492188 -0.25 1.617188 -0.273438 1.734375 -0.328125 C 1.847656 -0.378906 1.941406 -0.460938 2.015625 -0.578125 L 2.25 -0.421875 C 2.15625 -0.273438 2.03125 -0.164062 1.875 -0.09375 C 1.726562 -0.0195312 1.554688 0.015625 1.359375 0.015625 Z M 1.359375 0.015625 "/></g></g></g><g fill="#fffbed" fill-opacity="1"><g transform="translate(40.442091, 4.004316)"><g><path d="M 2.390625 -1.03125 L 0.5 -1.03125 C 0.519531 -0.800781 0.609375 -0.613281 0.765625 -0.46875 C 0.929688 -0.320312 1.140625 -0.25 1.390625 -0.25 C 1.535156 -0.25 1.664062 -0.273438 1.78125 -0.328125 C 1.894531 -0.378906 1.992188 -0.453125 2.078125 -0.546875 L 2.25 -0.34375 C 2.15625 -0.226562 2.03125 -0.140625 1.875 -0.078125 C 1.726562 -0.015625 1.566406 0.015625 1.390625 0.015625 C 1.148438 0.015625 0.941406 -0.03125 0.765625 -0.125 C 0.585938 -0.226562 0.445312 -0.363281 0.34375 -0.53125 C 0.25 -0.707031 0.203125 -0.90625 0.203125 -1.125 C 0.203125 -1.34375 0.25 -1.539062 0.34375 -1.71875 C 0.4375 -1.894531 0.566406 -2.03125 0.734375 -2.125 C 0.898438 -2.226562 1.085938 -2.28125 1.296875 -2.28125 C 1.503906 -2.28125 1.691406 -2.226562 1.859375 -2.125 C 2.023438 -2.03125 2.15625 -1.894531 2.25 -1.71875 C 2.34375 -1.550781 2.390625 -1.351562 2.390625 -1.125 Z M 1.296875 -2.015625 C 1.078125 -2.015625 0.894531 -1.941406 0.75 -1.796875 C 0.601562 -1.660156 0.519531 -1.484375 0.5 -1.265625 L 2.109375 -1.265625 C 2.085938 -1.484375 2 -1.660156 1.84375 -1.796875 C 1.695312 -1.941406 1.515625 -2.015625 1.296875 -2.015625 Z M 1.296875 -2.015625 "/></g></g></g><g fill="#fffbed" fill-opacity="1"><g transform="translate(43.039308, 4.004316)"><g><path d="M 1.59375 -2.28125 C 1.800781 -2.28125 1.988281 -2.226562 2.15625 -2.125 C 2.332031 -2.03125 2.46875 -1.894531 2.5625 -1.71875 C 2.664062 -1.550781 2.71875 -1.351562 2.71875 -1.125 C 2.71875 -0.90625 2.664062 -0.707031 2.5625 -0.53125 C 2.46875 -0.351562 2.332031 -0.21875 2.15625 -0.125 C 1.988281 -0.03125 1.800781 0.015625 1.59375 0.015625 C 1.40625 0.015625 1.238281 -0.0195312 1.09375 -0.09375 C 0.945312 -0.164062 0.828125 -0.273438 0.734375 -0.421875 L 0.734375 0.828125 L 0.421875 0.828125 L 0.421875 -2.265625 L 0.71875 -2.265625 L 0.71875 -1.8125 C 0.8125 -1.957031 0.929688 -2.070312 1.078125 -2.15625 C 1.234375 -2.238281 1.40625 -2.28125 1.59375 -2.28125 Z M 1.5625 -0.25 C 1.71875 -0.25 1.859375 -0.285156 1.984375 -0.359375 C 2.117188 -0.429688 2.222656 -0.535156 2.296875 -0.671875 C 2.367188 -0.804688 2.40625 -0.957031 2.40625 -1.125 C 2.40625 -1.300781 2.367188 -1.453125 2.296875 -1.578125 C 2.222656 -1.710938 2.117188 -1.816406 1.984375 -1.890625 C 1.859375 -1.972656 1.71875 -2.015625 1.5625 -2.015625 C 1.40625 -2.015625 1.257812 -1.972656 1.125 -1.890625 C 1 -1.816406 0.898438 -1.710938 0.828125 -1.578125 C 0.753906 -1.453125 0.71875 -1.300781 0.71875 -1.125 C 0.71875 -0.957031 0.753906 -0.804688 0.828125 -0.671875 C 0.898438 -0.535156 1 -0.429688 1.125 -0.359375 C 1.257812 -0.285156 1.40625 -0.25 1.5625 -0.25 Z M 1.5625 -0.25 "/></g></g></g><g fill="#fffbed" fill-opacity="1"><g transform="translate(45.954731, 4.004316)"><g><path d="M 1.609375 -0.140625 C 1.554688 -0.0859375 1.488281 -0.046875 1.40625 -0.015625 C 1.320312 0.00390625 1.234375 0.015625 1.140625 0.015625 C 0.929688 0.015625 0.769531 -0.0390625 0.65625 -0.15625 C 0.539062 -0.269531 0.484375 -0.429688 0.484375 -0.640625 L 0.484375 -2 L 0.078125 -2 L 0.078125 -2.265625 L 0.484375 -2.265625 L 0.484375 -2.75 L 0.78125 -2.75 L 0.78125 -2.265625 L 1.46875 -2.265625 L 1.46875 -2 L 0.78125 -2 L 0.78125 -0.65625 C 0.78125 -0.519531 0.8125 -0.414062 0.875 -0.34375 C 0.945312 -0.269531 1.046875 -0.234375 1.171875 -0.234375 C 1.234375 -0.234375 1.289062 -0.242188 1.34375 -0.265625 C 1.40625 -0.285156 1.460938 -0.316406 1.515625 -0.359375 Z M 1.609375 -0.140625 "/></g></g></g><g fill="#fffbed" fill-opacity="1"><g transform="translate(47.700545, 4.004316)"><g><path d="M 1.03125 0.015625 C 0.84375 0.015625 0.664062 -0.0078125 0.5 -0.0625 C 0.332031 -0.113281 0.203125 -0.175781 0.109375 -0.25 L 0.25 -0.5 C 0.34375 -0.425781 0.460938 -0.363281 0.609375 -0.3125 C 0.753906 -0.269531 0.898438 -0.25 1.046875 -0.25 C 1.253906 -0.25 1.40625 -0.28125 1.5 -0.34375 C 1.601562 -0.40625 1.65625 -0.492188 1.65625 -0.609375 C 1.65625 -0.691406 1.628906 -0.753906 1.578125 -0.796875 C 1.523438 -0.847656 1.457031 -0.882812 1.375 -0.90625 C 1.289062 -0.9375 1.179688 -0.960938 1.046875 -0.984375 C 0.859375 -1.023438 0.707031 -1.0625 0.59375 -1.09375 C 0.476562 -1.125 0.378906 -1.179688 0.296875 -1.265625 C 0.222656 -1.359375 0.1875 -1.476562 0.1875 -1.625 C 0.1875 -1.820312 0.265625 -1.976562 0.421875 -2.09375 C 0.585938 -2.21875 0.8125 -2.28125 1.09375 -2.28125 C 1.238281 -2.28125 1.382812 -2.257812 1.53125 -2.21875 C 1.675781 -2.175781 1.796875 -2.125 1.890625 -2.0625 L 1.75 -1.828125 C 1.5625 -1.953125 1.34375 -2.015625 1.09375 -2.015625 C 0.894531 -2.015625 0.742188 -1.976562 0.640625 -1.90625 C 0.546875 -1.84375 0.5 -1.753906 0.5 -1.640625 C 0.5 -1.554688 0.523438 -1.488281 0.578125 -1.4375 C 0.640625 -1.382812 0.710938 -1.34375 0.796875 -1.3125 C 0.878906 -1.289062 0.992188 -1.269531 1.140625 -1.25 C 1.316406 -1.207031 1.457031 -1.171875 1.5625 -1.140625 C 1.675781 -1.109375 1.769531 -1.050781 1.84375 -0.96875 C 1.925781 -0.882812 1.96875 -0.769531 1.96875 -0.625 C 1.96875 -0.425781 1.882812 -0.269531 1.71875 -0.15625 C 1.550781 -0.0390625 1.320312 0.015625 1.03125 0.015625 Z M 1.03125 0.015625 "/></g></g></g><g fill="#fffbed" fill-opacity="1"><g transform="translate(49.80326, 4.004316)"><g><path d="M 0.453125 -0.453125 C 0.523438 -0.453125 0.582031 -0.425781 0.625 -0.375 C 0.664062 -0.332031 0.6875 -0.28125 0.6875 -0.21875 C 0.6875 -0.175781 0.679688 -0.132812 0.671875 -0.09375 C 0.660156 -0.0625 0.644531 -0.0195312 0.625 0.03125 L 0.453125 0.625 L 0.234375 0.625 L 0.390625 0 C 0.335938 -0.0078125 0.296875 -0.0351562 0.265625 -0.078125 C 0.242188 -0.117188 0.234375 -0.164062 0.234375 -0.21875 C 0.234375 -0.28125 0.253906 -0.332031 0.296875 -0.375 C 0.335938 -0.425781 0.390625 -0.453125 0.453125 -0.453125 Z M 0.453125 -0.453125 "/></g></g></g><g fill="#fffbed" fill-opacity="1"><g transform="translate(50.714868, 4.004316)"><g/></g></g><g fill="#fffbed" fill-opacity="1"><g transform="translate(51.841478, 4.004316)"><g><path d="M 1.609375 -0.140625 C 1.554688 -0.0859375 1.488281 -0.046875 1.40625 -0.015625 C 1.320312 0.00390625 1.234375 0.015625 1.140625 0.015625 C 0.929688 0.015625 0.769531 -0.0390625 0.65625 -0.15625 C 0.539062 -0.269531 0.484375 -0.429688 0.484375 -0.640625 L 0.484375 -2 L 0.078125 -2 L 0.078125 -2.265625 L 0.484375 -2.265625 L 0.484375 -2.75 L 0.78125 -2.75 L 0.78125 -2.265625 L 1.46875 -2.265625 L 1.46875 -2 L 0.78125 -2 L 0.78125 -0.65625 C 0.78125 -0.519531 0.8125 -0.414062 0.875 -0.34375 C 0.945312 -0.269531 1.046875 -0.234375 1.171875 -0.234375 C 1.234375 -0.234375 1.289062 -0.242188 1.34375 -0.265625 C 1.40625 -0.285156 1.460938 -0.316406 1.515625 -0.359375 Z M 1.609375 -0.140625 "/></g></g></g><g fill="#fffbed" fill-opacity="1"><g transform="translate(53.505594, 4.004316)"><g><path d="M 1.34375 0.015625 C 1.125 0.015625 0.925781 -0.03125 0.75 -0.125 C 0.582031 -0.226562 0.445312 -0.363281 0.34375 -0.53125 C 0.25 -0.707031 0.203125 -0.90625 0.203125 -1.125 C 0.203125 -1.34375 0.25 -1.539062 0.34375 -1.71875 C 0.445312 -1.894531 0.582031 -2.03125 0.75 -2.125 C 0.925781 -2.226562 1.125 -2.28125 1.34375 -2.28125 C 1.5625 -2.28125 1.757812 -2.226562 1.9375 -2.125 C 2.113281 -2.03125 2.25 -1.894531 2.34375 -1.71875 C 2.445312 -1.539062 2.5 -1.34375 2.5 -1.125 C 2.5 -0.90625 2.445312 -0.707031 2.34375 -0.53125 C 2.25 -0.363281 2.113281 -0.226562 1.9375 -0.125 C 1.757812 -0.03125 1.5625 0.015625 1.34375 0.015625 Z M 1.34375 -0.25 C 1.507812 -0.25 1.65625 -0.285156 1.78125 -0.359375 C 1.90625 -0.429688 2.003906 -0.535156 2.078125 -0.671875 C 2.148438 -0.804688 2.1875 -0.957031 2.1875 -1.125 C 2.1875 -1.300781 2.148438 -1.457031 2.078125 -1.59375 C 2.003906 -1.726562 1.90625 -1.832031 1.78125 -1.90625 C 1.65625 -1.976562 1.507812 -2.015625 1.34375 -2.015625 C 1.1875 -2.015625 1.039062 -1.976562 0.90625 -1.90625 C 0.78125 -1.832031 0.679688 -1.726562 0.609375 -1.59375 C 0.535156 -1.457031 0.5 -1.300781 0.5 -1.125 C 0.5 -0.957031 0.535156 -0.804688 0.609375 -0.671875 C 0.679688 -0.535156 0.78125 -0.429688 0.90625 -0.359375 C 1.039062 -0.285156 1.1875 -0.25 1.34375 -0.25 Z M 1.34375 -0.25 "/></g></g></g><g fill="#fffbed" fill-opacity="1"><g transform="translate(56.201711, 4.004316)"><g><path d="M 1.34375 0.015625 C 1.125 0.015625 0.925781 -0.03125 0.75 -0.125 C 0.582031 -0.226562 0.445312 -0.363281 0.34375 -0.53125 C 0.25 -0.707031 0.203125 -0.90625 0.203125 -1.125 C 0.203125 -1.34375 0.25 -1.539062 0.34375 -1.71875 C 0.445312 -1.894531 0.582031 -2.03125 0.75 -2.125 C 0.925781 -2.226562 1.125 -2.28125 1.34375 -2.28125 C 1.5625 -2.28125 1.757812 -2.226562 1.9375 -2.125 C 2.113281 -2.03125 2.25 -1.894531 2.34375 -1.71875 C 2.445312 -1.539062 2.5 -1.34375 2.5 -1.125 C 2.5 -0.90625 2.445312 -0.707031 2.34375 -0.53125 C 2.25 -0.363281 2.113281 -0.226562 1.9375 -0.125 C 1.757812 -0.03125 1.5625 0.015625 1.34375 0.015625 Z M 1.34375 -0.25 C 1.507812 -0.25 1.65625 -0.285156 1.78125 -0.359375 C 1.90625 -0.429688 2.003906 -0.535156 2.078125 -0.671875 C 2.148438 -0.804688 2.1875 -0.957031 2.1875 -1.125 C 2.1875 -1.300781 2.148438 -1.457031 2.078125 -1.59375 C 2.003906 -1.726562 1.90625 -1.832031 1.78125 -1.90625 C 1.65625 -1.976562 1.507812 -2.015625 1.34375 -2.015625 C 1.1875 -2.015625 1.039062 -1.976562 0.90625 -1.90625 C 0.78125 -1.832031 0.679688 -1.726562 0.609375 -1.59375 C 0.535156 -1.457031 0.5 -1.300781 0.5 -1.125 C 0.5 -0.957031 0.535156 -0.804688 0.609375 -0.671875 C 0.679688 -0.535156 0.78125 -0.429688 0.90625 -0.359375 C 1.039062 -0.285156 1.1875 -0.25 1.34375 -0.25 Z M 1.34375 -0.25 "/></g></g></g><g fill="#fffbed" fill-opacity="1"><g transform="translate(58.897829, 4.004316)"><g><path d="M 0.421875 -3.1875 L 0.734375 -3.1875 L 0.734375 0 L 0.421875 0 Z M 0.421875 -3.1875 "/></g></g></g><g fill="#fffbed" fill-opacity="1"><g transform="translate(60.054538, 4.004316)"><g><path d="M 1.03125 0.015625 C 0.84375 0.015625 0.664062 -0.0078125 0.5 -0.0625 C 0.332031 -0.113281 0.203125 -0.175781 0.109375 -0.25 L 0.25 -0.5 C 0.34375 -0.425781 0.460938 -0.363281 0.609375 -0.3125 C 0.753906 -0.269531 0.898438 -0.25 1.046875 -0.25 C 1.253906 -0.25 1.40625 -0.28125 1.5 -0.34375 C 1.601562 -0.40625 1.65625 -0.492188 1.65625 -0.609375 C 1.65625 -0.691406 1.628906 -0.753906 1.578125 -0.796875 C 1.523438 -0.847656 1.457031 -0.882812 1.375 -0.90625 C 1.289062 -0.9375 1.179688 -0.960938 1.046875 -0.984375 C 0.859375 -1.023438 0.707031 -1.0625 0.59375 -1.09375 C 0.476562 -1.125 0.378906 -1.179688 0.296875 -1.265625 C 0.222656 -1.359375 0.1875 -1.476562 0.1875 -1.625 C 0.1875 -1.820312 0.265625 -1.976562 0.421875 -2.09375 C 0.585938 -2.21875 0.8125 -2.28125 1.09375 -2.28125 C 1.238281 -2.28125 1.382812 -2.257812 1.53125 -2.21875 C 1.675781 -2.175781 1.796875 -2.125 1.890625 -2.0625 L 1.75 -1.828125 C 1.5625 -1.953125 1.34375 -2.015625 1.09375 -2.015625 C 0.894531 -2.015625 0.742188 -1.976562 0.640625 -1.90625 C 0.546875 -1.84375 0.5 -1.753906 0.5 -1.640625 C 0.5 -1.554688 0.523438 -1.488281 0.578125 -1.4375 C 0.640625 -1.382812 0.710938 -1.34375 0.796875 -1.3125 C 0.878906 -1.289062 0.992188 -1.269531 1.140625 -1.25 C 1.316406 -1.207031 1.457031 -1.171875 1.5625 -1.140625 C 1.675781 -1.109375 1.769531 -1.050781 1.84375 -0.96875 C 1.925781 -0.882812 1.96875 -0.769531 1.96875 -0.625 C 1.96875 -0.425781 1.882812 -0.269531 1.71875 -0.15625 C 1.550781 -0.0390625 1.320312 0.015625 1.03125 0.015625 Z M 1.03125 0.015625 "/></g></g></g><g fill="#fffbed" fill-opacity="1"><g transform="translate(62.157254, 4.004316)"><g><path d="M 0.453125 -0.453125 C 0.523438 -0.453125 0.582031 -0.425781 0.625 -0.375 C 0.664062 -0.332031 0.6875 -0.28125 0.6875 -0.21875 C 0.6875 -0.175781 0.679688 -0.132812 0.671875 -0.09375 C 0.660156 -0.0625 0.644531 -0.0195312 0.625 0.03125 L 0.453125 0.625 L 0.234375 0.625 L 0.390625 0 C 0.335938 -0.0078125 0.296875 -0.0351562 0.265625 -0.078125 C 0.242188 -0.117188 0.234375 -0.164062 0.234375 -0.21875 C 0.234375 -0.28125 0.253906 -0.332031 0.296875 -0.375 C 0.335938 -0.425781 0.390625 -0.453125 0.453125 -0.453125 Z M 0.453125 -0.453125 "/></g></g></g><g fill="#fffbed" fill-opacity="1"><g transform="translate(63.068862, 4.004316)"><g/></g></g><g fill="#fffbed" fill-opacity="1"><g transform="translate(64.195472, 4.004316)"><g><path d="M 1.59375 -2.28125 C 1.800781 -2.28125 1.988281 -2.226562 2.15625 -2.125 C 2.332031 -2.03125 2.46875 -1.894531 2.5625 -1.71875 C 2.664062 -1.550781 2.71875 -1.351562 2.71875 -1.125 C 2.71875 -0.90625 2.664062 -0.707031 2.5625 -0.53125 C 2.46875 -0.351562 2.332031 -0.21875 2.15625 -0.125 C 1.988281 -0.03125 1.800781 0.015625 1.59375 0.015625 C 1.40625 0.015625 1.238281 -0.0195312 1.09375 -0.09375 C 0.945312 -0.164062 0.828125 -0.273438 0.734375 -0.421875 L 0.734375 0.828125 L 0.421875 0.828125 L 0.421875 -2.265625 L 0.71875 -2.265625 L 0.71875 -1.8125 C 0.8125 -1.957031 0.929688 -2.070312 1.078125 -2.15625 C 1.234375 -2.238281 1.40625 -2.28125 1.59375 -2.28125 Z M 1.5625 -0.25 C 1.71875 -0.25 1.859375 -0.285156 1.984375 -0.359375 C 2.117188 -0.429688 2.222656 -0.535156 2.296875 -0.671875 C 2.367188 -0.804688 2.40625 -0.957031 2.40625 -1.125 C 2.40625 -1.300781 2.367188 -1.453125 2.296875 -1.578125 C 2.222656 -1.710938 2.117188 -1.816406 1.984375 -1.890625 C 1.859375 -1.972656 1.71875 -2.015625 1.5625 -2.015625 C 1.40625 -2.015625 1.257812 -1.972656 1.125 -1.890625 C 1 -1.816406 0.898438 -1.710938 0.828125 -1.578125 C 0.753906 -1.453125 0.71875 -1.300781 0.71875 -1.125 C 0.71875 -0.957031 0.753906 -0.804688 0.828125 -0.671875 C 0.898438 -0.535156 1 -0.429688 1.125 -0.359375 C 1.257812 -0.285156 1.40625 -0.25 1.5625 -0.25 Z M 1.5625 -0.25 "/></g></g></g><g fill="#fffbed" fill-opacity="1"><g transform="translate(67.110894, 4.004316)"><g><path d="M 0.71875 -1.8125 C 0.789062 -1.96875 0.894531 -2.082031 1.03125 -2.15625 C 1.175781 -2.238281 1.351562 -2.28125 1.5625 -2.28125 L 1.5625 -1.984375 L 1.484375 -1.984375 C 1.253906 -1.984375 1.070312 -1.910156 0.9375 -1.765625 C 0.800781 -1.617188 0.734375 -1.414062 0.734375 -1.15625 L 0.734375 0 L 0.421875 0 L 0.421875 -2.265625 L 0.71875 -2.265625 Z M 0.71875 -1.8125 "/></g></g></g><g fill="#fffbed" fill-opacity="1"><g transform="translate(68.779302, 4.004316)"><g><path d="M 1.34375 0.015625 C 1.125 0.015625 0.925781 -0.03125 0.75 -0.125 C 0.582031 -0.226562 0.445312 -0.363281 0.34375 -0.53125 C 0.25 -0.707031 0.203125 -0.90625 0.203125 -1.125 C 0.203125 -1.34375 0.25 -1.539062 0.34375 -1.71875 C 0.445312 -1.894531 0.582031 -2.03125 0.75 -2.125 C 0.925781 -2.226562 1.125 -2.28125 1.34375 -2.28125 C 1.5625 -2.28125 1.757812 -2.226562 1.9375 -2.125 C 2.113281 -2.03125 2.25 -1.894531 2.34375 -1.71875 C 2.445312 -1.539062 2.5 -1.34375 2.5 -1.125 C 2.5 -0.90625 2.445312 -0.707031 2.34375 -0.53125 C 2.25 -0.363281 2.113281 -0.226562 1.9375 -0.125 C 1.757812 -0.03125 1.5625 0.015625 1.34375 0.015625 Z M 1.34375 -0.25 C 1.507812 -0.25 1.65625 -0.285156 1.78125 -0.359375 C 1.90625 -0.429688 2.003906 -0.535156 2.078125 -0.671875 C 2.148438 -0.804688 2.1875 -0.957031 2.1875 -1.125 C 2.1875 -1.300781 2.148438 -1.457031 2.078125 -1.59375 C 2.003906 -1.726562 1.90625 -1.832031 1.78125 -1.90625 C 1.65625 -1.976562 1.507812 -2.015625 1.34375 -2.015625 C 1.1875 -2.015625 1.039062 -1.976562 0.90625 -1.90625 C 0.78125 -1.832031 0.679688 -1.726562 0.609375 -1.59375 C 0.535156 -1.457031 0.5 -1.300781 0.5 -1.125 C 0.5 -0.957031 0.535156 -0.804688 0.609375 -0.671875 C 0.679688 -0.535156 0.78125 -0.429688 0.90625 -0.359375 C 1.039062 -0.285156 1.1875 -0.25 1.34375 -0.25 Z M 1.34375 -0.25 "/></g></g></g><g fill="#fffbed" fill-opacity="1"><g transform="translate(71.475419, 4.004316)"><g><path d="M 1.359375 0.015625 C 1.140625 0.015625 0.941406 -0.03125 0.765625 -0.125 C 0.585938 -0.21875 0.445312 -0.351562 0.34375 -0.53125 C 0.25 -0.707031 0.203125 -0.90625 0.203125 -1.125 C 0.203125 -1.34375 0.25 -1.539062 0.34375 -1.71875 C 0.445312 -1.894531 0.585938 -2.03125 0.765625 -2.125 C 0.941406 -2.226562 1.140625 -2.28125 1.359375 -2.28125 C 1.554688 -2.28125 1.726562 -2.238281 1.875 -2.15625 C 2.03125 -2.082031 2.15625 -1.972656 2.25 -1.828125 L 2.015625 -1.671875 C 1.941406 -1.785156 1.847656 -1.867188 1.734375 -1.921875 C 1.617188 -1.984375 1.492188 -2.015625 1.359375 -2.015625 C 1.191406 -2.015625 1.039062 -1.976562 0.90625 -1.90625 C 0.78125 -1.832031 0.679688 -1.726562 0.609375 -1.59375 C 0.535156 -1.457031 0.5 -1.300781 0.5 -1.125 C 0.5 -0.957031 0.535156 -0.804688 0.609375 -0.671875 C 0.679688 -0.535156 0.78125 -0.429688 0.90625 -0.359375 C 1.039062 -0.285156 1.191406 -0.25 1.359375 -0.25 C 1.492188 -0.25 1.617188 -0.273438 1.734375 -0.328125 C 1.847656 -0.378906 1.941406 -0.460938 2.015625 -0.578125 L 2.25 -0.421875 C 2.15625 -0.273438 2.03125 -0.164062 1.875 -0.09375 C 1.726562 -0.0195312 1.554688 0.015625 1.359375 0.015625 Z M 1.359375 0.015625 "/></g></g></g><g fill="#fffbed" fill-opacity="1"><g transform="translate(73.857634, 4.004316)"><g><path d="M 2.390625 -1.03125 L 0.5 -1.03125 C 0.519531 -0.800781 0.609375 -0.613281 0.765625 -0.46875 C 0.929688 -0.320312 1.140625 -0.25 1.390625 -0.25 C 1.535156 -0.25 1.664062 -0.273438 1.78125 -0.328125 C 1.894531 -0.378906 1.992188 -0.453125 2.078125 -0.546875 L 2.25 -0.34375 C 2.15625 -0.226562 2.03125 -0.140625 1.875 -0.078125 C 1.726562 -0.015625 1.566406 0.015625 1.390625 0.015625 C 1.148438 0.015625 0.941406 -0.03125 0.765625 -0.125 C 0.585938 -0.226562 0.445312 -0.363281 0.34375 -0.53125 C 0.25 -0.707031 0.203125 -0.90625 0.203125 -1.125 C 0.203125 -1.34375 0.25 -1.539062 0.34375 -1.71875 C 0.4375 -1.894531 0.566406 -2.03125 0.734375 -2.125 C 0.898438 -2.226562 1.085938 -2.28125 1.296875 -2.28125 C 1.503906 -2.28125 1.691406 -2.226562 1.859375 -2.125 C 2.023438 -2.03125 2.15625 -1.894531 2.25 -1.71875 C 2.34375 -1.550781 2.390625 -1.351562 2.390625 -1.125 Z M 1.296875 -2.015625 C 1.078125 -2.015625 0.894531 -1.941406 0.75 -1.796875 C 0.601562 -1.660156 0.519531 -1.484375 0.5 -1.265625 L 2.109375 -1.265625 C 2.085938 -1.484375 2 -1.660156 1.84375 -1.796875 C 1.695312 -1.941406 1.515625 -2.015625 1.296875 -2.015625 Z M 1.296875 -2.015625 "/></g></g></g><g fill="#fffbed" fill-opacity="1"><g transform="translate(76.454851, 4.004316)"><g><path d="M 1.03125 0.015625 C 0.84375 0.015625 0.664062 -0.0078125 0.5 -0.0625 C 0.332031 -0.113281 0.203125 -0.175781 0.109375 -0.25 L 0.25 -0.5 C 0.34375 -0.425781 0.460938 -0.363281 0.609375 -0.3125 C 0.753906 -0.269531 0.898438 -0.25 1.046875 -0.25 C 1.253906 -0.25 1.40625 -0.28125 1.5 -0.34375 C 1.601562 -0.40625 1.65625 -0.492188 1.65625 -0.609375 C 1.65625 -0.691406 1.628906 -0.753906 1.578125 -0.796875 C 1.523438 -0.847656 1.457031 -0.882812 1.375 -0.90625 C 1.289062 -0.9375 1.179688 -0.960938 1.046875 -0.984375 C 0.859375 -1.023438 0.707031 -1.0625 0.59375 -1.09375 C 0.476562 -1.125 0.378906 -1.179688 0.296875 -1.265625 C 0.222656 -1.359375 0.1875 -1.476562 0.1875 -1.625 C 0.1875 -1.820312 0.265625 -1.976562 0.421875 -2.09375 C 0.585938 -2.21875 0.8125 -2.28125 1.09375 -2.28125 C 1.238281 -2.28125 1.382812 -2.257812 1.53125 -2.21875 C 1.675781 -2.175781 1.796875 -2.125 1.890625 -2.0625 L 1.75 -1.828125 C 1.5625 -1.953125 1.34375 -2.015625 1.09375 -2.015625 C 0.894531 -2.015625 0.742188 -1.976562 0.640625 -1.90625 C 0.546875 -1.84375 0.5 -1.753906 0.5 -1.640625 C 0.5 -1.554688 0.523438 -1.488281 0.578125 -1.4375 C 0.640625 -1.382812 0.710938 -1.34375 0.796875 -1.3125 C 0.878906 -1.289062 0.992188 -1.269531 1.140625 -1.25 C 1.316406 -1.207031 1.457031 -1.171875 1.5625 -1.140625 C 1.675781 -1.109375 1.769531 -1.050781 1.84375 -0.96875 C 1.925781 -0.882812 1.96875 -0.769531 1.96875 -0.625 C 1.96875 -0.425781 1.882812 -0.269531 1.71875 -0.15625 C 1.550781 -0.0390625 1.320312 0.015625 1.03125 0.015625 Z M 1.03125 0.015625 "/></g></g></g><g fill="#fffbed" fill-opacity="1"><g transform="translate(78.557567, 4.004316)"><g><path d="M 1.03125 0.015625 C 0.84375 0.015625 0.664062 -0.0078125 0.5 -0.0625 C 0.332031 -0.113281 0.203125 -0.175781 0.109375 -0.25 L 0.25 -0.5 C 0.34375 -0.425781 0.460938 -0.363281 0.609375 -0.3125 C 0.753906 -0.269531 0.898438 -0.25 1.046875 -0.25 C 1.253906 -0.25 1.40625 -0.28125 1.5 -0.34375 C 1.601562 -0.40625 1.65625 -0.492188 1.65625 -0.609375 C 1.65625 -0.691406 1.628906 -0.753906 1.578125 -0.796875 C 1.523438 -0.847656 1.457031 -0.882812 1.375 -0.90625 C 1.289062 -0.9375 1.179688 -0.960938 1.046875 -0.984375 C 0.859375 -1.023438 0.707031 -1.0625 0.59375 -1.09375 C 0.476562 -1.125 0.378906 -1.179688 0.296875 -1.265625 C 0.222656 -1.359375 0.1875 -1.476562 0.1875 -1.625 C 0.1875 -1.820312 0.265625 -1.976562 0.421875 -2.09375 C 0.585938 -2.21875 0.8125 -2.28125 1.09375 -2.28125 C 1.238281 -2.28125 1.382812 -2.257812 1.53125 -2.21875 C 1.675781 -2.175781 1.796875 -2.125 1.890625 -2.0625 L 1.75 -1.828125 C 1.5625 -1.953125 1.34375 -2.015625 1.09375 -2.015625 C 0.894531 -2.015625 0.742188 -1.976562 0.640625 -1.90625 C 0.546875 -1.84375 0.5 -1.753906 0.5 -1.640625 C 0.5 -1.554688 0.523438 -1.488281 0.578125 -1.4375 C 0.640625 -1.382812 0.710938 -1.34375 0.796875 -1.3125 C 0.878906 -1.289062 0.992188 -1.269531 1.140625 -1.25 C 1.316406 -1.207031 1.457031 -1.171875 1.5625 -1.140625 C 1.675781 -1.109375 1.769531 -1.050781 1.84375 -0.96875 C 1.925781 -0.882812 1.96875 -0.769531 1.96875 -0.625 C 1.96875 -0.425781 1.882812 -0.269531 1.71875 -0.15625 C 1.550781 -0.0390625 1.320312 0.015625 1.03125 0.015625 Z M 1.03125 0.015625 "/></g></g></g><g fill="#fffbed" fill-opacity="1"><g transform="translate(80.660282, 4.004316)"><g><path d="M 2.390625 -1.03125 L 0.5 -1.03125 C 0.519531 -0.800781 0.609375 -0.613281 0.765625 -0.46875 C 0.929688 -0.320312 1.140625 -0.25 1.390625 -0.25 C 1.535156 -0.25 1.664062 -0.273438 1.78125 -0.328125 C 1.894531 -0.378906 1.992188 -0.453125 2.078125 -0.546875 L 2.25 -0.34375 C 2.15625 -0.226562 2.03125 -0.140625 1.875 -0.078125 C 1.726562 -0.015625 1.566406 0.015625 1.390625 0.015625 C 1.148438 0.015625 0.941406 -0.03125 0.765625 -0.125 C 0.585938 -0.226562 0.445312 -0.363281 0.34375 -0.53125 C 0.25 -0.707031 0.203125 -0.90625 0.203125 -1.125 C 0.203125 -1.34375 0.25 -1.539062 0.34375 -1.71875 C 0.4375 -1.894531 0.566406 -2.03125 0.734375 -2.125 C 0.898438 -2.226562 1.085938 -2.28125 1.296875 -2.28125 C 1.503906 -2.28125 1.691406 -2.226562 1.859375 -2.125 C 2.023438 -2.03125 2.15625 -1.894531 2.25 -1.71875 C 2.34375 -1.550781 2.390625 -1.351562 2.390625 -1.125 Z M 1.296875 -2.015625 C 1.078125 -2.015625 0.894531 -1.941406 0.75 -1.796875 C 0.601562 -1.660156 0.519531 -1.484375 0.5 -1.265625 L 2.109375 -1.265625 C 2.085938 -1.484375 2 -1.660156 1.84375 -1.796875 C 1.695312 -1.941406 1.515625 -2.015625 1.296875 -2.015625 Z M 1.296875 -2.015625 "/></g></g></g><g fill="#fffbed" fill-opacity="1"><g transform="translate(83.257499, 4.004316)"><g><path d="M 1.03125 0.015625 C 0.84375 0.015625 0.664062 -0.0078125 0.5 -0.0625 C 0.332031 -0.113281 0.203125 -0.175781 0.109375 -0.25 L 0.25 -0.5 C 0.34375 -0.425781 0.460938 -0.363281 0.609375 -0.3125 C 0.753906 -0.269531 0.898438 -0.25 1.046875 -0.25 C 1.253906 -0.25 1.40625 -0.28125 1.5 -0.34375 C 1.601562 -0.40625 1.65625 -0.492188 1.65625 -0.609375 C 1.65625 -0.691406 1.628906 -0.753906 1.578125 -0.796875 C 1.523438 -0.847656 1.457031 -0.882812 1.375 -0.90625 C 1.289062 -0.9375 1.179688 -0.960938 1.046875 -0.984375 C 0.859375 -1.023438 0.707031 -1.0625 0.59375 -1.09375 C 0.476562 -1.125 0.378906 -1.179688 0.296875 -1.265625 C 0.222656 -1.359375 0.1875 -1.476562 0.1875 -1.625 C 0.1875 -1.820312 0.265625 -1.976562 0.421875 -2.09375 C 0.585938 -2.21875 0.8125 -2.28125 1.09375 -2.28125 C 1.238281 -2.28125 1.382812 -2.257812 1.53125 -2.21875 C 1.675781 -2.175781 1.796875 -2.125 1.890625 -2.0625 L 1.75 -1.828125 C 1.5625 -1.953125 1.34375 -2.015625 1.09375 -2.015625 C 0.894531 -2.015625 0.742188 -1.976562 0.640625 -1.90625 C 0.546875 -1.84375 0.5 -1.753906 0.5 -1.640625 C 0.5 -1.554688 0.523438 -1.488281 0.578125 -1.4375 C 0.640625 -1.382812 0.710938 -1.34375 0.796875 -1.3125 C 0.878906 -1.289062 0.992188 -1.269531 1.140625 -1.25 C 1.316406 -1.207031 1.457031 -1.171875 1.5625 -1.140625 C 1.675781 -1.109375 1.769531 -1.050781 1.84375 -0.96875 C 1.925781 -0.882812 1.96875 -0.769531 1.96875 -0.625 C 1.96875 -0.425781 1.882812 -0.269531 1.71875 -0.15625 C 1.550781 -0.0390625 1.320312 0.015625 1.03125 0.015625 Z M 1.03125 0.015625 "/></g></g></g><g fill="#fffbed" fill-opacity="1"><g transform="translate(85.360214, 4.004316)"><g/></g></g><g fill="#fffbed" fill-opacity="1"><g transform="translate(86.486824, 4.004316)"><g><path d="M 2.640625 0.046875 L 2.21875 -0.375 C 1.96875 -0.101562 1.632812 0.03125 1.21875 0.03125 C 1.019531 0.03125 0.84375 0 0.6875 -0.0625 C 0.539062 -0.132812 0.421875 -0.226562 0.328125 -0.34375 C 0.242188 -0.457031 0.203125 -0.585938 0.203125 -0.734375 C 0.203125 -0.921875 0.257812 -1.082031 0.375 -1.21875 C 0.488281 -1.363281 0.6875 -1.515625 0.96875 -1.671875 C 0.820312 -1.828125 0.722656 -1.957031 0.671875 -2.0625 C 0.617188 -2.164062 0.59375 -2.273438 0.59375 -2.390625 C 0.59375 -2.578125 0.660156 -2.726562 0.796875 -2.84375 C 0.929688 -2.96875 1.113281 -3.03125 1.34375 -3.03125 C 1.5625 -3.03125 1.734375 -2.976562 1.859375 -2.875 C 1.984375 -2.769531 2.046875 -2.625 2.046875 -2.4375 C 2.046875 -2.28125 1.992188 -2.144531 1.890625 -2.03125 C 1.796875 -1.914062 1.625 -1.785156 1.375 -1.640625 L 2.203125 -0.78125 C 2.296875 -0.945312 2.363281 -1.140625 2.40625 -1.359375 L 2.65625 -1.28125 C 2.601562 -1.019531 2.515625 -0.789062 2.390625 -0.59375 L 2.8125 -0.15625 Z M 1.34375 -2.796875 C 1.195312 -2.796875 1.082031 -2.757812 1 -2.6875 C 0.914062 -2.613281 0.875 -2.515625 0.875 -2.390625 C 0.875 -2.304688 0.894531 -2.222656 0.9375 -2.140625 C 0.988281 -2.054688 1.082031 -1.945312 1.21875 -1.8125 C 1.425781 -1.9375 1.570312 -2.039062 1.65625 -2.125 C 1.738281 -2.21875 1.78125 -2.316406 1.78125 -2.421875 C 1.78125 -2.535156 1.742188 -2.625 1.671875 -2.6875 C 1.597656 -2.757812 1.488281 -2.796875 1.34375 -2.796875 Z M 1.234375 -0.234375 C 1.566406 -0.234375 1.835938 -0.34375 2.046875 -0.5625 L 1.140625 -1.5 C 0.898438 -1.363281 0.734375 -1.238281 0.640625 -1.125 C 0.554688 -1.019531 0.515625 -0.898438 0.515625 -0.765625 C 0.515625 -0.609375 0.578125 -0.476562 0.703125 -0.375 C 0.835938 -0.28125 1.015625 -0.234375 1.234375 -0.234375 Z M 1.234375 -0.234375 "/></g></g></g><g fill="#fffbed" fill-opacity="1"><g transform="translate(89.363546, 4.004316)"><g/></g></g><g fill="#fffbed" fill-opacity="1"><g transform="translate(90.490156, 4.004316)"><g><path d="M 1.59375 -2.28125 C 1.800781 -2.28125 1.988281 -2.226562 2.15625 -2.125 C 2.332031 -2.03125 2.46875 -1.894531 2.5625 -1.71875 C 2.664062 -1.550781 2.71875 -1.351562 2.71875 -1.125 C 2.71875 -0.90625 2.664062 -0.707031 2.5625 -0.53125 C 2.46875 -0.351562 2.332031 -0.21875 2.15625 -0.125 C 1.988281 -0.03125 1.800781 0.015625 1.59375 0.015625 C 1.40625 0.015625 1.234375 -0.0195312 1.078125 -0.09375 C 0.929688 -0.175781 0.8125 -0.296875 0.71875 -0.453125 L 0.71875 0 L 0.421875 0 L 0.421875 -3.1875 L 0.734375 -3.1875 L 0.734375 -1.828125 C 0.828125 -1.972656 0.945312 -2.082031 1.09375 -2.15625 C 1.238281 -2.238281 1.40625 -2.28125 1.59375 -2.28125 Z M 1.5625 -0.25 C 1.71875 -0.25 1.859375 -0.285156 1.984375 -0.359375 C 2.117188 -0.429688 2.222656 -0.535156 2.296875 -0.671875 C 2.367188 -0.804688 2.40625 -0.957031 2.40625 -1.125 C 2.40625 -1.300781 2.367188 -1.457031 2.296875 -1.59375 C 2.222656 -1.726562 2.117188 -1.832031 1.984375 -1.90625 C 1.859375 -1.976562 1.71875 -2.015625 1.5625 -2.015625 C 1.40625 -2.015625 1.257812 -1.976562 1.125 -1.90625 C 1 -1.832031 0.898438 -1.726562 0.828125 -1.59375 C 0.753906 -1.457031 0.71875 -1.300781 0.71875 -1.125 C 0.71875 -0.957031 0.753906 -0.804688 0.828125 -0.671875 C 0.898438 -0.535156 1 -0.429688 1.125 -0.359375 C 1.257812 -0.285156 1.40625 -0.25 1.5625 -0.25 Z M 1.5625 -0.25 "/></g></g></g><g fill="#fffbed" fill-opacity="1"><g transform="translate(93.405579, 4.004316)"><g><path d="M 2.390625 -1.03125 L 0.5 -1.03125 C 0.519531 -0.800781 0.609375 -0.613281 0.765625 -0.46875 C 0.929688 -0.320312 1.140625 -0.25 1.390625 -0.25 C 1.535156 -0.25 1.664062 -0.273438 1.78125 -0.328125 C 1.894531 -0.378906 1.992188 -0.453125 2.078125 -0.546875 L 2.25 -0.34375 C 2.15625 -0.226562 2.03125 -0.140625 1.875 -0.078125 C 1.726562 -0.015625 1.566406 0.015625 1.390625 0.015625 C 1.148438 0.015625 0.941406 -0.03125 0.765625 -0.125 C 0.585938 -0.226562 0.445312 -0.363281 0.34375 -0.53125 C 0.25 -0.707031 0.203125 -0.90625 0.203125 -1.125 C 0.203125 -1.34375 0.25 -1.539062 0.34375 -1.71875 C 0.4375 -1.894531 0.566406 -2.03125 0.734375 -2.125 C 0.898438 -2.226562 1.085938 -2.28125 1.296875 -2.28125 C 1.503906 -2.28125 1.691406 -2.226562 1.859375 -2.125 C 2.023438 -2.03125 2.15625 -1.894531 2.25 -1.71875 C 2.34375 -1.550781 2.390625 -1.351562 2.390625 -1.125 Z M 1.296875 -2.015625 C 1.078125 -2.015625 0.894531 -1.941406 0.75 -1.796875 C 0.601562 -1.660156 0.519531 -1.484375 0.5 -1.265625 L 2.109375 -1.265625 C 2.085938 -1.484375 2 -1.660156 1.84375 -1.796875 C 1.695312 -1.941406 1.515625 -2.015625 1.296875 -2.015625 Z M 1.296875 -2.015625 "/></g></g></g><g fill="#fffbed" fill-opacity="1"><g transform="translate(96.002796, 4.004316)"><g><path d="M 1.03125 0.015625 C 0.84375 0.015625 0.664062 -0.0078125 0.5 -0.0625 C 0.332031 -0.113281 0.203125 -0.175781 0.109375 -0.25 L 0.25 -0.5 C 0.34375 -0.425781 0.460938 -0.363281 0.609375 -0.3125 C 0.753906 -0.269531 0.898438 -0.25 1.046875 -0.25 C 1.253906 -0.25 1.40625 -0.28125 1.5 -0.34375 C 1.601562 -0.40625 1.65625 -0.492188 1.65625 -0.609375 C 1.65625 -0.691406 1.628906 -0.753906 1.578125 -0.796875 C 1.523438 -0.847656 1.457031 -0.882812 1.375 -0.90625 C 1.289062 -0.9375 1.179688 -0.960938 1.046875 -0.984375 C 0.859375 -1.023438 0.707031 -1.0625 0.59375 -1.09375 C 0.476562 -1.125 0.378906 -1.179688 0.296875 -1.265625 C 0.222656 -1.359375 0.1875 -1.476562 0.1875 -1.625 C 0.1875 -1.820312 0.265625 -1.976562 0.421875 -2.09375 C 0.585938 -2.21875 0.8125 -2.28125 1.09375 -2.28125 C 1.238281 -2.28125 1.382812 -2.257812 1.53125 -2.21875 C 1.675781 -2.175781 1.796875 -2.125 1.890625 -2.0625 L 1.75 -1.828125 C 1.5625 -1.953125 1.34375 -2.015625 1.09375 -2.015625 C 0.894531 -2.015625 0.742188 -1.976562 0.640625 -1.90625 C 0.546875 -1.84375 0.5 -1.753906 0.5 -1.640625 C 0.5 -1.554688 0.523438 -1.488281 0.578125 -1.4375 C 0.640625 -1.382812 0.710938 -1.34375 0.796875 -1.3125 C 0.878906 -1.289062 0.992188 -1.269531 1.140625 -1.25 C 1.316406 -1.207031 1.457031 -1.171875 1.5625 -1.140625 C 1.675781 -1.109375 1.769531 -1.050781 1.84375 -0.96875 C 1.925781 -0.882812 1.96875 -0.769531 1.96875 -0.625 C 1.96875 -0.425781 1.882812 -0.269531 1.71875 -0.15625 C 1.550781 -0.0390625 1.320312 0.015625 1.03125 0.015625 Z M 1.03125 0.015625 "/></g></g></g><g fill="#fffbed" fill-opacity="1"><g transform="translate(98.105511, 4.004316)"><g><path d="M 1.609375 -0.140625 C 1.554688 -0.0859375 1.488281 -0.046875 1.40625 -0.015625 C 1.320312 0.00390625 1.234375 0.015625 1.140625 0.015625 C 0.929688 0.015625 0.769531 -0.0390625 0.65625 -0.15625 C 0.539062 -0.269531 0.484375 -0.429688 0.484375 -0.640625 L 0.484375 -2 L 0.078125 -2 L 0.078125 -2.265625 L 0.484375 -2.265625 L 0.484375 -2.75 L 0.78125 -2.75 L 0.78125 -2.265625 L 1.46875 -2.265625 L 1.46875 -2 L 0.78125 -2 L 0.78125 -0.65625 C 0.78125 -0.519531 0.8125 -0.414062 0.875 -0.34375 C 0.945312 -0.269531 1.046875 -0.234375 1.171875 -0.234375 C 1.234375 -0.234375 1.289062 -0.242188 1.34375 -0.265625 C 1.40625 -0.285156 1.460938 -0.316406 1.515625 -0.359375 Z M 1.609375 -0.140625 "/></g></g></g><g fill="#fffbed" fill-opacity="1"><g transform="translate(99.851326, 4.004316)"><g/></g></g><g fill="#fffbed" fill-opacity="1"><g transform="translate(100.97793, 4.004316)"><g><path d="M 1.59375 -2.28125 C 1.800781 -2.28125 1.988281 -2.226562 2.15625 -2.125 C 2.332031 -2.03125 2.46875 -1.894531 2.5625 -1.71875 C 2.664062 -1.550781 2.71875 -1.351562 2.71875 -1.125 C 2.71875 -0.90625 2.664062 -0.707031 2.5625 -0.53125 C 2.46875 -0.351562 2.332031 -0.21875 2.15625 -0.125 C 1.988281 -0.03125 1.800781 0.015625 1.59375 0.015625 C 1.40625 0.015625 1.238281 -0.0195312 1.09375 -0.09375 C 0.945312 -0.164062 0.828125 -0.273438 0.734375 -0.421875 L 0.734375 0.828125 L 0.421875 0.828125 L 0.421875 -2.265625 L 0.71875 -2.265625 L 0.71875 -1.8125 C 0.8125 -1.957031 0.929688 -2.070312 1.078125 -2.15625 C 1.234375 -2.238281 1.40625 -2.28125 1.59375 -2.28125 Z M 1.5625 -0.25 C 1.71875 -0.25 1.859375 -0.285156 1.984375 -0.359375 C 2.117188 -0.429688 2.222656 -0.535156 2.296875 -0.671875 C 2.367188 -0.804688 2.40625 -0.957031 2.40625 -1.125 C 2.40625 -1.300781 2.367188 -1.453125 2.296875 -1.578125 C 2.222656 -1.710938 2.117188 -1.816406 1.984375 -1.890625 C 1.859375 -1.972656 1.71875 -2.015625 1.5625 -2.015625 C 1.40625 -2.015625 1.257812 -1.972656 1.125 -1.890625 C 1 -1.816406 0.898438 -1.710938 0.828125 -1.578125 C 0.753906 -1.453125 0.71875 -1.300781 0.71875 -1.125 C 0.71875 -0.957031 0.753906 -0.804688 0.828125 -0.671875 C 0.898438 -0.535156 1 -0.429688 1.125 -0.359375 C 1.257812 -0.285156 1.40625 -0.25 1.5625 -0.25 Z M 1.5625 -0.25 "/></g></g></g><g fill="#fffbed" fill-opacity="1"><g transform="translate(103.893359, 4.004316)"><g><path d="M 0.71875 -1.8125 C 0.789062 -1.96875 0.894531 -2.082031 1.03125 -2.15625 C 1.175781 -2.238281 1.351562 -2.28125 1.5625 -2.28125 L 1.5625 -1.984375 L 1.484375 -1.984375 C 1.253906 -1.984375 1.070312 -1.910156 0.9375 -1.765625 C 0.800781 -1.617188 0.734375 -1.414062 0.734375 -1.15625 L 0.734375 0 L 0.421875 0 L 0.421875 -2.265625 L 0.71875 -2.265625 Z M 0.71875 -1.8125 "/></g></g></g><g fill="#fffbed" fill-opacity="1"><g transform="translate(105.578962, 4.004316)"><g><path d="M 1.21875 -2.28125 C 1.507812 -2.28125 1.734375 -2.203125 1.890625 -2.046875 C 2.046875 -1.898438 2.125 -1.6875 2.125 -1.40625 L 2.125 0 L 1.84375 0 L 1.84375 -0.359375 C 1.769531 -0.234375 1.664062 -0.140625 1.53125 -0.078125 C 1.40625 -0.015625 1.25 0.015625 1.0625 0.015625 C 0.8125 0.015625 0.609375 -0.0390625 0.453125 -0.15625 C 0.304688 -0.28125 0.234375 -0.441406 0.234375 -0.640625 C 0.234375 -0.828125 0.300781 -0.976562 0.4375 -1.09375 C 0.582031 -1.21875 0.804688 -1.28125 1.109375 -1.28125 L 1.828125 -1.28125 L 1.828125 -1.40625 C 1.828125 -1.601562 1.769531 -1.753906 1.65625 -1.859375 C 1.550781 -1.960938 1.394531 -2.015625 1.1875 -2.015625 C 1.039062 -2.015625 0.898438 -1.988281 0.765625 -1.9375 C 0.640625 -1.894531 0.53125 -1.832031 0.4375 -1.75 L 0.296875 -1.96875 C 0.410156 -2.070312 0.546875 -2.148438 0.703125 -2.203125 C 0.867188 -2.253906 1.039062 -2.28125 1.21875 -2.28125 Z M 1.109375 -0.21875 C 1.273438 -0.21875 1.421875 -0.253906 1.546875 -0.328125 C 1.671875 -0.410156 1.765625 -0.523438 1.828125 -0.671875 L 1.828125 -1.046875 L 1.109375 -1.046875 C 0.722656 -1.046875 0.53125 -0.910156 0.53125 -0.640625 C 0.53125 -0.515625 0.582031 -0.410156 0.6875 -0.328125 C 0.789062 -0.253906 0.929688 -0.21875 1.109375 -0.21875 Z M 1.109375 -0.21875 "/></g></g></g><g fill="#fffbed" fill-opacity="1"><g transform="translate(108.124586, 4.004316)"><g><path d="M 1.359375 0.015625 C 1.140625 0.015625 0.941406 -0.03125 0.765625 -0.125 C 0.585938 -0.21875 0.445312 -0.351562 0.34375 -0.53125 C 0.25 -0.707031 0.203125 -0.90625 0.203125 -1.125 C 0.203125 -1.34375 0.25 -1.539062 0.34375 -1.71875 C 0.445312 -1.894531 0.585938 -2.03125 0.765625 -2.125 C 0.941406 -2.226562 1.140625 -2.28125 1.359375 -2.28125 C 1.554688 -2.28125 1.726562 -2.238281 1.875 -2.15625 C 2.03125 -2.082031 2.15625 -1.972656 2.25 -1.828125 L 2.015625 -1.671875 C 1.941406 -1.785156 1.847656 -1.867188 1.734375 -1.921875 C 1.617188 -1.984375 1.492188 -2.015625 1.359375 -2.015625 C 1.191406 -2.015625 1.039062 -1.976562 0.90625 -1.90625 C 0.78125 -1.832031 0.679688 -1.726562 0.609375 -1.59375 C 0.535156 -1.457031 0.5 -1.300781 0.5 -1.125 C 0.5 -0.957031 0.535156 -0.804688 0.609375 -0.671875 C 0.679688 -0.535156 0.78125 -0.429688 0.90625 -0.359375 C 1.039062 -0.285156 1.191406 -0.25 1.359375 -0.25 C 1.492188 -0.25 1.617188 -0.273438 1.734375 -0.328125 C 1.847656 -0.378906 1.941406 -0.460938 2.015625 -0.578125 L 2.25 -0.421875 C 2.15625 -0.273438 2.03125 -0.164062 1.875 -0.09375 C 1.726562 -0.0195312 1.554688 0.015625 1.359375 0.015625 Z M 1.359375 0.015625 "/></g></g></g><g fill="#fffbed" fill-opacity="1"><g transform="translate(110.571309, 4.004316)"><g><path d="M 1.609375 -0.140625 C 1.554688 -0.0859375 1.488281 -0.046875 1.40625 -0.015625 C 1.320312 0.00390625 1.234375 0.015625 1.140625 0.015625 C 0.929688 0.015625 0.769531 -0.0390625 0.65625 -0.15625 C 0.539062 -0.269531 0.484375 -0.429688 0.484375 -0.640625 L 0.484375 -2 L 0.078125 -2 L 0.078125 -2.265625 L 0.484375 -2.265625 L 0.484375 -2.75 L 0.78125 -2.75 L 0.78125 -2.265625 L 1.46875 -2.265625 L 1.46875 -2 L 0.78125 -2 L 0.78125 -0.65625 C 0.78125 -0.519531 0.8125 -0.414062 0.875 -0.34375 C 0.945312 -0.269531 1.046875 -0.234375 1.171875 -0.234375 C 1.234375 -0.234375 1.289062 -0.242188 1.34375 -0.265625 C 1.40625 -0.285156 1.460938 -0.316406 1.515625 -0.359375 Z M 1.609375 -0.140625 "/></g></g></g><g fill="#fffbed" fill-opacity="1"><g transform="translate(112.317112, 4.004316)"><g><path d="M 0.421875 -2.265625 L 0.734375 -2.265625 L 0.734375 0 L 0.421875 0 Z M 0.59375 -2.75 C 0.519531 -2.75 0.460938 -2.769531 0.421875 -2.8125 C 0.378906 -2.863281 0.359375 -2.914062 0.359375 -2.96875 C 0.359375 -3.03125 0.378906 -3.082031 0.421875 -3.125 C 0.460938 -3.164062 0.519531 -3.1875 0.59375 -3.1875 C 0.65625 -3.1875 0.707031 -3.164062 0.75 -3.125 C 0.789062 -3.082031 0.8125 -3.035156 0.8125 -2.984375 C 0.8125 -2.921875 0.789062 -2.863281 0.75 -2.8125 C 0.707031 -2.769531 0.65625 -2.75 0.59375 -2.75 Z M 0.59375 -2.75 "/></g></g></g><g fill="#fffbed" fill-opacity="1"><g transform="translate(113.473822, 4.004316)"><g><path d="M 1.359375 0.015625 C 1.140625 0.015625 0.941406 -0.03125 0.765625 -0.125 C 0.585938 -0.21875 0.445312 -0.351562 0.34375 -0.53125 C 0.25 -0.707031 0.203125 -0.90625 0.203125 -1.125 C 0.203125 -1.34375 0.25 -1.539062 0.34375 -1.71875 C 0.445312 -1.894531 0.585938 -2.03125 0.765625 -2.125 C 0.941406 -2.226562 1.140625 -2.28125 1.359375 -2.28125 C 1.554688 -2.28125 1.726562 -2.238281 1.875 -2.15625 C 2.03125 -2.082031 2.15625 -1.972656 2.25 -1.828125 L 2.015625 -1.671875 C 1.941406 -1.785156 1.847656 -1.867188 1.734375 -1.921875 C 1.617188 -1.984375 1.492188 -2.015625 1.359375 -2.015625 C 1.191406 -2.015625 1.039062 -1.976562 0.90625 -1.90625 C 0.78125 -1.832031 0.679688 -1.726562 0.609375 -1.59375 C 0.535156 -1.457031 0.5 -1.300781 0.5 -1.125 C 0.5 -0.957031 0.535156 -0.804688 0.609375 -0.671875 C 0.679688 -0.535156 0.78125 -0.429688 0.90625 -0.359375 C 1.039062 -0.285156 1.191406 -0.25 1.359375 -0.25 C 1.492188 -0.25 1.617188 -0.273438 1.734375 -0.328125 C 1.847656 -0.378906 1.941406 -0.460938 2.015625 -0.578125 L 2.25 -0.421875 C 2.15625 -0.273438 2.03125 -0.164062 1.875 -0.09375 C 1.726562 -0.0195312 1.554688 0.015625 1.359375 0.015625 Z M 1.359375 0.015625 "/></g></g></g><g fill="#fffbed" fill-opacity="1"><g transform="translate(115.856048, 4.004316)"><g><path d="M 2.390625 -1.03125 L 0.5 -1.03125 C 0.519531 -0.800781 0.609375 -0.613281 0.765625 -0.46875 C 0.929688 -0.320312 1.140625 -0.25 1.390625 -0.25 C 1.535156 -0.25 1.664062 -0.273438 1.78125 -0.328125 C 1.894531 -0.378906 1.992188 -0.453125 2.078125 -0.546875 L 2.25 -0.34375 C 2.15625 -0.226562 2.03125 -0.140625 1.875 -0.078125 C 1.726562 -0.015625 1.566406 0.015625 1.390625 0.015625 C 1.148438 0.015625 0.941406 -0.03125 0.765625 -0.125 C 0.585938 -0.226562 0.445312 -0.363281 0.34375 -0.53125 C 0.25 -0.707031 0.203125 -0.90625 0.203125 -1.125 C 0.203125 -1.34375 0.25 -1.539062 0.34375 -1.71875 C 0.4375 -1.894531 0.566406 -2.03125 0.734375 -2.125 C 0.898438 -2.226562 1.085938 -2.28125 1.296875 -2.28125 C 1.503906 -2.28125 1.691406 -2.226562 1.859375 -2.125 C 2.023438 -2.03125 2.15625 -1.894531 2.25 -1.71875 C 2.34375 -1.550781 2.390625 -1.351562 2.390625 -1.125 Z M 1.296875 -2.015625 C 1.078125 -2.015625 0.894531 -1.941406 0.75 -1.796875 C 0.601562 -1.660156 0.519531 -1.484375 0.5 -1.265625 L 2.109375 -1.265625 C 2.085938 -1.484375 2 -1.660156 1.84375 -1.796875 C 1.695312 -1.941406 1.515625 -2.015625 1.296875 -2.015625 Z M 1.296875 -2.015625 "/></g></g></g><g fill="#fffbed" fill-opacity="1"><g transform="translate(118.453265, 4.004316)"><g><path d="M 1.03125 0.015625 C 0.84375 0.015625 0.664062 -0.0078125 0.5 -0.0625 C 0.332031 -0.113281 0.203125 -0.175781 0.109375 -0.25 L 0.25 -0.5 C 0.34375 -0.425781 0.460938 -0.363281 0.609375 -0.3125 C 0.753906 -0.269531 0.898438 -0.25 1.046875 -0.25 C 1.253906 -0.25 1.40625 -0.28125 1.5 -0.34375 C 1.601562 -0.40625 1.65625 -0.492188 1.65625 -0.609375 C 1.65625 -0.691406 1.628906 -0.753906 1.578125 -0.796875 C 1.523438 -0.847656 1.457031 -0.882812 1.375 -0.90625 C 1.289062 -0.9375 1.179688 -0.960938 1.046875 -0.984375 C 0.859375 -1.023438 0.707031 -1.0625 0.59375 -1.09375 C 0.476562 -1.125 0.378906 -1.179688 0.296875 -1.265625 C 0.222656 -1.359375 0.1875 -1.476562 0.1875 -1.625 C 0.1875 -1.820312 0.265625 -1.976562 0.421875 -2.09375 C 0.585938 -2.21875 0.8125 -2.28125 1.09375 -2.28125 C 1.238281 -2.28125 1.382812 -2.257812 1.53125 -2.21875 C 1.675781 -2.175781 1.796875 -2.125 1.890625 -2.0625 L 1.75 -1.828125 C 1.5625 -1.953125 1.34375 -2.015625 1.09375 -2.015625 C 0.894531 -2.015625 0.742188 -1.976562 0.640625 -1.90625 C 0.546875 -1.84375 0.5 -1.753906 0.5 -1.640625 C 0.5 -1.554688 0.523438 -1.488281 0.578125 -1.4375 C 0.640625 -1.382812 0.710938 -1.34375 0.796875 -1.3125 C 0.878906 -1.289062 0.992188 -1.269531 1.140625 -1.25 C 1.316406 -1.207031 1.457031 -1.171875 1.5625 -1.140625 C 1.675781 -1.109375 1.769531 -1.050781 1.84375 -0.96875 C 1.925781 -0.882812 1.96875 -0.769531 1.96875 -0.625 C 1.96875 -0.425781 1.882812 -0.269531 1.71875 -0.15625 C 1.550781 -0.0390625 1.320312 0.015625 1.03125 0.015625 Z M 1.03125 0.015625 "/></g></g></g></g></g></svg>